<svg width="20" height="24" viewBox="0 0 20 24" fill="none" xmlns="http://www.w3.org/2000/svg">
<path d="M17.5 9.5H16.75V6.75C16.75 4.95979 16.0388 3.2429 14.773 1.97703C13.5071 0.711159 11.7902 0 10 0C8.20979 0 6.4929 0.711159 5.22703 1.97703C3.96116 3.2429 3.25 4.95979 3.25 6.75V9.5H2.5C1.96957 9.5 1.46086 9.71071 1.08579 10.0858C0.710714 10.4609 0.5 10.9696 0.5 11.5V22C0.5 22.5304 0.710714 23.0391 1.08579 23.4142C1.46086 23.7893 1.96957 24 2.5 24H17.5C18.0304 24 18.5391 23.7893 18.9142 23.4142C19.2893 23.0391 19.5 22.5304 19.5 22V11.5C19.5 10.9696 19.2893 10.4609 18.9142 10.0858C18.5391 9.71071 18.0304 9.5 17.5 9.5ZM8 15.5C7.99841 15.1485 8.08946 14.8029 8.26399 14.4978C8.43851 14.1928 8.69034 13.9391 8.99411 13.7623C9.29788 13.5856 9.64287 13.492 9.99432 13.491C10.3458 13.49 10.6913 13.5816 10.9961 13.7566C11.3008 13.9317 11.5541 14.1839 11.7303 14.488C11.9066 14.7921 11.9996 15.1372 12 15.4887C12.0004 15.8401 11.9082 16.1855 11.7326 16.49C11.5571 16.7944 11.3044 17.0473 11 17.223V19.5C11 19.7652 10.8946 20.0196 10.7071 20.2071C10.5196 20.3946 10.2652 20.5 10 20.5C9.73478 20.5 9.48043 20.3946 9.29289 20.2071C9.10536 20.0196 9 19.7652 9 19.5V17.223C8.69688 17.0487 8.44492 16.7978 8.26941 16.4953C8.09389 16.1929 8.00098 15.8497 8 15.5V15.5ZM5.75 6.75C5.75 5.62283 6.19777 4.54183 6.9948 3.7448C7.79183 2.94777 8.87283 2.5 10 2.5C11.1272 2.5 12.2082 2.94777 13.0052 3.7448C13.8022 4.54183 14.25 5.62283 14.25 6.75V9C14.25 9.13261 14.1973 9.25979 14.1036 9.35355C14.0098 9.44732 13.8826 9.5 13.75 9.5H6.25C6.11739 9.5 5.99021 9.44732 5.89645 9.35355C5.80268 9.25979 5.75 9.13261 5.75 9V6.75Z" fill="white"/>
</svg>
