<svg width="73" height="165" viewBox="0 0 73 165" fill="none" xmlns="http://www.w3.org/2000/svg">
<path d="M15 35C15.5 35 56 34.5 57 35C58 35.5 57.5 36.5 57.5 37C57.5 37.5 14.5 37 14.5 37C14.5 37 14.5 35 15 35Z" fill="#BB6BD9"/>
<path d="M57.7499 36.0938C57.7499 36.0938 52.3358 0 36.0936 0C19.8514 0 14.4374 36.0938 14.4374 36.0938H57.7499Z" fill="#BB6BD9"/>
<path d="M57.7498 108.281L57.7499 36.0938H14.4374L14.4373 108.281H57.7498Z" fill="#BB6BD9"/>
<path fill-rule="evenodd" clip-rule="evenodd" d="M46.922 46.9219C46.922 52.9021 42.0741 57.75 36.0939 57.75C30.1137 57.75 25.2657 52.9021 25.2657 46.9219C25.2657 40.9417 30.1137 36.0938 36.0939 36.0938C42.0741 36.0938 46.922 40.9417 46.922 46.9219ZM14.4375 72.1876C6.4639 72.1876 0 78.6515 0 86.6251L0 111.891C0 115.878 3.23195 119.11 7.21875 119.11C11.2056 119.11 14.4375 115.878 14.4375 111.891L14.4375 72.1876ZM72.1875 86.6251C72.1875 78.6515 65.7237 72.1876 57.75 72.1876L57.75 111.891C57.75 115.878 60.982 119.11 64.9688 119.11C68.9556 119.11 72.1875 115.878 72.1875 111.891V86.6251ZM28.875 86.6251C28.875 82.6383 32.107 79.4064 36.0938 79.4064C40.0806 79.4064 43.3125 82.6383 43.3125 86.6251L43.3125 117.305C43.3125 121.292 40.0806 124.524 36.0938 124.524C32.107 124.524 28.875 121.292 28.875 117.305V86.6251ZM15.4052 138.645C15.4052 135.809 17.7042 133.51 20.5402 133.51C23.3761 133.51 25.6752 135.809 25.6752 138.645C25.6752 141.481 23.3761 143.78 20.5402 143.78C17.7042 143.78 15.4052 141.481 15.4052 138.645ZM46.2151 138.645C46.2151 135.809 48.5142 133.51 51.3501 133.51C54.1861 133.51 56.4851 135.809 56.4851 138.645C56.4851 141.481 54.1861 143.78 51.3501 143.78C48.5142 143.78 46.2151 141.481 46.2151 138.645ZM30.81 159.185C30.81 156.349 33.109 154.05 35.945 154.05C38.7809 154.05 41.0799 156.349 41.0799 159.185C41.0799 162.021 38.7809 164.32 35.945 164.32C33.109 164.32 30.81 162.021 30.81 159.185ZM0.000183105 159.185C0.000183105 156.349 2.2992 154.05 5.13517 154.05C7.97115 154.05 10.2702 156.349 10.2702 159.185C10.2702 162.021 7.97115 164.32 5.13517 164.32C2.2992 164.32 0.000183105 162.021 0.000183105 159.185ZM61.6201 159.185C61.6201 156.349 63.9192 154.05 66.7551 154.05C69.5911 154.05 71.8901 156.349 71.8901 159.185C71.8901 162.021 69.5911 164.32 66.7551 164.32C63.9192 164.32 61.6201 162.021 61.6201 159.185Z" fill="url(#paint0_linear_806_103)"/>
<defs>
<linearGradient id="paint0_linear_806_103" x1="36.0938" y1="36.0938" x2="36.0938" y2="164.32" gradientUnits="userSpaceOnUse">
<stop stop-color="#56CCF2"/>
<stop offset="1" stop-color="#AD00FF"/>
</linearGradient>
</defs>
</svg>


