<svg width="864" height="303" viewBox="0 0 864 303" fill="none" xmlns="http://www.w3.org/2000/svg">
<path fill-rule="evenodd" clip-rule="evenodd" d="M864 0C533.922 14.5457 344.786 80.1075 0 302.177H210.683H864V0ZM750.956 240.002C755.883 242.816 761.397 244.223 767.498 244.223C773.755 244.223 779.348 242.816 784.275 240.002C789.203 237.11 793.074 233.203 795.89 228.279C796.63 227.019 797.276 225.717 797.827 224.37C798.937 221.656 796.729 218.937 793.794 218.937C791.734 218.937 789.967 220.323 789.108 222.194C788.816 222.83 788.496 223.451 788.147 224.058C786.113 227.732 783.298 230.663 779.7 232.851C776.102 234.961 772.035 236.016 767.498 236.016C763.04 236.016 759.012 234.961 755.414 232.851C751.816 230.663 749 227.732 746.967 224.058C744.933 220.385 743.917 216.204 743.917 211.514C743.917 206.903 744.933 202.761 746.967 199.088C749 195.336 751.816 192.405 755.414 190.295C759.012 188.185 763.04 187.13 767.498 187.13C772.035 187.13 776.102 188.185 779.7 190.295C783.298 192.405 786.113 195.336 788.147 199.088C790.037 202.375 787.186 205.937 783.394 205.937H781.683C779.288 205.937 777.346 207.877 777.346 210.271C777.346 212.664 779.288 214.604 781.683 214.604H797.014C798.762 214.604 800.231 213.261 800.231 211.514C800.231 205.34 798.823 199.791 796.008 194.867C793.27 189.943 789.516 186.075 784.745 183.261C779.973 180.369 774.577 178.923 768.554 178.923C763.314 178.923 758.543 180.057 754.241 182.323C750.511 184.256 744.034 181.715 744.034 177.517V146.572C744.034 145.165 743.604 144.071 742.743 143.29C741.961 142.43 740.905 142 739.576 142C738.168 142 737.034 142.43 736.173 143.29C735.391 144.071 735 145.165 735 146.572V211.983C735.021 213.587 735.011 230.374 735.004 239.067C735.002 241.919 737.315 244.223 740.17 244.223C742.461 244.223 744.351 242.573 745.853 240.845C746.979 239.549 748.655 238.667 750.956 240.002ZM805.06 242.23C806.39 243.558 807.993 244.223 809.87 244.223C811.825 244.223 813.429 243.558 814.68 242.23C816.01 240.823 816.675 239.221 816.675 237.423C816.675 235.547 816.01 233.945 814.68 232.616C813.351 231.21 811.747 230.506 809.87 230.506C808.071 230.506 806.468 231.171 805.06 232.499C803.73 233.828 803.065 235.469 803.065 237.423C803.065 239.299 803.73 240.901 805.06 242.23Z" fill="black"/>
</svg>
