<svg width="100" height="100" viewBox="0 0 100 100" fill="none" xmlns="http://www.w3.org/2000/svg">
<path d="M37.6204 47.9776C36.6821 46.9753 35.22 47.0321 34.5822 48.3075L19.1944 79.0839C18.9091 79.6542 18.9395 80.3315 19.2747 80.8739C19.6099 81.4163 20.202 81.7465 20.8397 81.7464H42.2695C42.9709 81.7627 43.616 81.3639 43.9151 80.7292C48.5359 71.1753 45.7363 56.649 37.6204 47.9776Z" fill="url(#paint0_linear_357_8093)"/>
<path d="M48.9124 19.9856C40.3057 33.6217 40.8736 48.7241 46.5426 60.0625L56.8758 80.7288C57.1873 81.352 57.8243 81.7457 58.521 81.7457H79.9505C80.5881 81.7457 81.1803 81.4156 81.5155 80.8732C81.8507 80.3308 81.8811 79.6534 81.5958 79.0832C81.5958 79.0832 52.7667 21.4167 52.0415 19.9739C51.3931 18.6822 49.746 18.6646 48.9124 19.9856Z" fill="#2681FF"/>
<defs>
<linearGradient id="paint0_linear_357_8093" x1="2724.62" y1="591.852" x2="567.224" y2="2909.28" gradientUnits="userSpaceOnUse">
<stop stop-color="#0052CC"/>
<stop offset="0.923" stop-color="#2684FF"/>
</linearGradient>
</defs>
</svg>
