<svg width="100" height="100" viewBox="0 0 100 100" fill="none" xmlns="http://www.w3.org/2000/svg">
<path d="M31.4688 43.0864C31.4688 44.1112 31.5796 44.9421 31.7735 45.5515C31.9951 46.1608 32.2721 46.8256 32.6598 47.5457C32.7983 47.7673 32.8537 47.9889 32.8537 48.1827C32.8537 48.4597 32.6875 48.7367 32.3275 49.0137L30.5825 50.177C30.3332 50.3431 30.084 50.4262 29.8624 50.4262C29.5854 50.4262 29.3084 50.2877 29.0315 50.0385C28.6437 49.623 28.3113 49.1799 28.0344 48.7367C27.7574 48.2658 27.4804 47.7396 27.1757 47.1025C25.0153 49.6507 22.301 50.9248 19.0327 50.9248C16.7061 50.9248 14.8504 50.2601 13.4932 48.9306C12.136 47.6011 11.4436 45.8285 11.4436 43.6127C11.4436 41.2584 12.2745 39.3473 13.9641 37.907C15.6536 36.4667 17.8971 35.7466 20.7499 35.7466C21.6917 35.7466 22.6611 35.8297 23.6859 35.9682C24.7107 36.1067 25.7632 36.3282 26.8711 36.5775V34.5556C26.8711 32.4506 26.4279 30.9826 25.5693 30.124C24.683 29.2654 23.1873 28.8499 21.0546 28.8499C20.0852 28.8499 19.0881 28.9607 18.0633 29.21C17.0385 29.4593 16.0414 29.764 15.072 30.1517C14.6288 30.3456 14.2964 30.4564 14.1026 30.5118C13.9087 30.5672 13.7702 30.5949 13.6594 30.5949C13.2716 30.5949 13.0778 30.3179 13.0778 29.7363V28.3791C13.0778 27.9359 13.1331 27.6036 13.2716 27.4097C13.4101 27.2158 13.6594 27.0219 14.0472 26.828C15.0166 26.3295 16.1799 25.914 17.537 25.5816C18.8942 25.2216 20.3345 25.0554 21.8578 25.0554C25.1538 25.0554 27.5635 25.8032 29.1146 27.2989C30.6379 28.7945 31.4134 31.0657 31.4134 34.1125V43.0864H31.4688ZM20.2237 47.2964C21.1377 47.2964 22.0794 47.1302 23.0765 46.7979C24.0736 46.4655 24.9599 45.8562 25.7078 45.0252C26.1509 44.499 26.4833 43.9173 26.6495 43.2526C26.8157 42.5879 26.9265 41.7846 26.9265 40.8429V39.6796C26.1232 39.4858 25.2646 39.3196 24.3783 39.2088C23.492 39.098 22.6334 39.0426 21.7747 39.0426C19.919 39.0426 18.5618 39.4027 17.6478 40.1505C16.7338 40.8983 16.2907 41.9508 16.2907 43.3357C16.2907 44.6375 16.623 45.6069 17.3155 46.2716C17.9802 46.9641 18.9496 47.2964 20.2237 47.2964ZM42.4647 50.2877C41.9662 50.2877 41.6338 50.2047 41.4122 50.0108C41.1906 49.8446 40.9968 49.4568 40.8306 48.9306L34.3217 27.5205C34.1555 26.9665 34.0724 26.6065 34.0724 26.4126C34.0724 25.9694 34.294 25.7201 34.7371 25.7201H37.4515C37.9777 25.7201 38.3378 25.8032 38.5317 25.9971C38.7533 26.1633 38.9195 26.5511 39.0856 27.0773L43.7388 45.413L48.0596 27.0773C48.1981 26.5234 48.3643 26.1633 48.5858 25.9971C48.8074 25.8309 49.1952 25.7201 49.6937 25.7201H51.9095C52.4358 25.7201 52.7959 25.8032 53.0174 25.9971C53.239 26.1633 53.4329 26.5511 53.5437 27.0773L57.9199 45.6346L62.7115 27.0773C62.8777 26.5234 63.0716 26.1633 63.2655 25.9971C63.4871 25.8309 63.8471 25.7201 64.3457 25.7201H66.9215C67.3647 25.7201 67.614 25.9417 67.614 26.4126C67.614 26.5511 67.5863 26.6895 67.5586 26.8557C67.5309 27.0219 67.4755 27.2435 67.3647 27.5482L60.6896 48.9583C60.5234 49.5122 60.3296 49.8723 60.108 50.0385C59.8864 50.2047 59.5263 50.3154 59.0555 50.3154H56.6735C56.1472 50.3154 55.7872 50.2324 55.5656 50.0385C55.344 49.8446 55.1501 49.4845 55.0394 48.9306L50.7462 31.0657L46.4808 48.9029C46.3424 49.4568 46.1762 49.8169 45.9546 50.0108C45.733 50.2047 45.3453 50.2877 44.8467 50.2877H42.4647ZM78.0559 51.0356C76.6156 51.0356 75.1754 50.8694 73.7905 50.537C72.4056 50.2047 71.3254 49.8446 70.6053 49.4291C70.1621 49.1799 69.8575 48.9029 69.7467 48.6536C69.6359 48.4043 69.5805 48.1273 69.5805 47.8781V46.4655C69.5805 45.8839 69.8021 45.6069 70.2175 45.6069C70.3837 45.6069 70.5499 45.6346 70.7161 45.69C70.8823 45.7454 71.1316 45.8562 71.4085 45.967C72.3502 46.3824 73.375 46.7148 74.4552 46.9364C75.5631 47.1579 76.6433 47.2687 77.7512 47.2687C79.4962 47.2687 80.8534 46.9641 81.7951 46.3547C82.7368 45.7454 83.2353 44.8591 83.2353 43.7235C83.2353 42.9479 82.9861 42.3109 82.4875 41.7846C81.9889 41.2584 81.0472 40.7875 79.6901 40.3444L75.6739 39.098C73.652 38.4609 72.1564 37.5192 71.2423 36.2729C70.3283 35.0542 69.8575 33.697 69.8575 32.2567C69.8575 31.0934 70.1067 30.0686 70.6053 29.1823C71.1039 28.296 71.7686 27.5205 72.5995 26.9111C73.4304 26.2741 74.3722 25.8032 75.4801 25.4709C76.5879 25.1385 77.7512 25 78.9699 25C79.5793 25 80.2163 25.0277 80.8257 25.1108C81.4627 25.1939 82.0443 25.3047 82.626 25.4155C83.1799 25.5539 83.7062 25.6924 84.2047 25.8586C84.7033 26.0248 85.0911 26.191 85.368 26.3572C85.7558 26.5788 86.0328 26.8003 86.199 27.0496C86.3651 27.2712 86.4482 27.5759 86.4482 27.9636V29.2654C86.4482 29.847 86.2267 30.1517 85.8112 30.1517C85.5896 30.1517 85.2295 30.0409 84.7587 29.8194C83.1799 29.0992 81.4073 28.7392 79.4408 28.7392C77.862 28.7392 76.6156 28.9884 75.757 29.5147C74.8984 30.0409 74.4552 30.8442 74.4552 31.9798C74.4552 32.7553 74.7322 33.42 75.2862 33.9463C75.8401 34.4725 76.8649 34.9988 78.3329 35.4696L82.2659 36.716C84.2601 37.3531 85.7004 38.2394 86.559 39.375C87.4176 40.5106 87.8331 41.8123 87.8331 43.2526C87.8331 44.4436 87.5838 45.5238 87.113 46.4655C86.6144 47.4072 85.9497 48.2381 85.0911 48.9029C84.2324 49.5953 83.2076 50.0939 82.0166 50.4539C80.7703 50.8417 79.4685 51.0356 78.0559 51.0356Z" fill="#252F3E"/>
<path fill-rule="evenodd" clip-rule="evenodd" d="M83.2905 64.4965C74.178 71.227 60.9386 74.7999 49.555 74.7999C33.6013 74.7999 19.2263 68.9004 8.36893 59.0955C7.51031 58.32 8.28584 57.2675 9.31065 57.8768C21.0544 64.6904 35.5401 68.8173 50.5244 68.8173C60.634 68.8173 71.7406 66.7123 81.961 62.3915C83.4844 61.6991 84.7861 63.3886 83.2905 64.4965Z" fill="#FF9900"/>
<path fill-rule="evenodd" clip-rule="evenodd" d="M87.085 60.1759C85.9217 58.6803 79.3851 59.4558 76.4215 59.8159C75.5351 59.9267 75.3966 59.1511 76.1999 58.5695C81.407 54.9134 89.9655 55.9659 90.9626 57.1846C91.9597 58.431 90.6856 66.9895 85.8109 71.0887C85.0631 71.7258 84.3429 71.3934 84.6753 70.5625C85.7832 67.8204 88.2483 61.6439 87.085 60.1759Z" fill="#FF9900"/>
</svg>
