<svg width="100" height="100" viewBox="0 0 100 100" fill="none" xmlns="http://www.w3.org/2000/svg">
<g clip-path="url(#clip0_356_7811)">
<path d="M17 74.4899C17 79.1904 20.8101 83 25.5101 83H74.4899C79.1904 83 83 79.1899 83 74.4899V25.5101C83 20.8096 79.1899 17 74.4899 17H25.5101C20.8096 17 17 20.8101 17 25.5101V74.4899Z" fill="#563D7C"/>
<path d="M44.3687 46.1942V36.8476H52.596C53.3795 36.8476 54.1351 36.9129 54.8627 37.0435C55.5902 37.1741 56.2339 37.4073 56.7935 37.7431C57.3532 38.0789 57.801 38.5453 58.1368 39.1423C58.4726 39.7393 58.6405 40.5041 58.6405 41.4369C58.6405 43.116 58.1368 44.3286 57.1294 45.0748C56.1219 45.8211 54.8347 46.1942 53.2676 46.1942H44.3687ZM35.5818 30.0195V69.9805H54.9466C56.7376 69.9805 58.4819 69.7566 60.1796 69.3089C61.8773 68.8611 63.3884 68.1709 64.713 67.2381C66.0376 66.3053 67.0916 65.102 67.8751 63.6281C68.6587 62.1543 69.0505 60.41 69.0505 58.3952C69.0505 55.8953 68.4442 53.7592 67.2315 51.9869C66.0189 50.2145 64.1813 48.9739 61.7187 48.265C63.5097 47.4068 64.8622 46.3061 65.7764 44.9629C66.6905 43.6197 67.1476 41.9407 67.1476 39.9258C67.1476 38.0602 66.8398 36.4931 66.2241 35.2245C65.6085 33.9559 64.741 32.9392 63.6216 32.1743C62.5022 31.4094 61.159 30.859 59.5919 30.5232C58.0248 30.1874 56.2898 30.0195 54.3869 30.0195H35.5818ZM44.3687 63.1524V52.1827H53.9392C55.8421 52.1827 57.3719 52.6212 58.5285 53.498C59.6852 54.3748 60.2635 55.8393 60.2635 57.8914C60.2635 58.9362 60.0863 59.7943 59.7318 60.466C59.3774 61.1376 58.9017 61.6693 58.3047 62.061C57.7077 62.4528 57.0174 62.7327 56.2339 62.9006C55.4503 63.0685 54.6295 63.1524 53.7713 63.1524H44.3687Z" fill="white"/>
</g>
<defs>
<clipPath id="clip0_356_7811">
<rect width="66" height="66" fill="white" transform="translate(17 17)"/>
</clipPath>
</defs>
</svg>
