<svg width="100" height="100" viewBox="0 0 100 100" fill="none" xmlns="http://www.w3.org/2000/svg">
<path d="M82 49.5C82 32.103 67.897 18 50.5 18C33.103 18 19 32.103 19 49.5C19 66.897 33.103 81 50.5 81C67.897 81 82 66.897 82 49.5Z" fill="url(#paint0_linear_356_8006)"/>
<path d="M36.0512 50.8447L57.5231 29.5205C57.9242 29.1221 58.5699 29.6069 58.299 30.1032L50.3073 44.7506C50.1289 45.0771 50.3654 45.4757 50.7375 45.4757H64.5485C64.9934 45.4757 65.2082 46.0206 64.8829 46.3244L40.6811 68.9117C40.2472 69.3167 39.6013 68.746 39.9496 68.2655L51.4063 52.4608C51.6411 52.1368 51.4097 51.6828 51.0094 51.6828H36.3966C35.959 51.6828 35.7407 51.153 36.0512 50.8447Z" fill="white"/>
<defs>
<linearGradient id="paint0_linear_356_8006" x1="50.5" y1="18" x2="50.5" y2="81" gradientUnits="userSpaceOnUse">
<stop stop-color="#7BCBD4"/>
<stop offset="1" stop-color="#29C6B7"/>
</linearGradient>
</defs>
</svg>
