<svg width="100" height="100" viewBox="0 0 100 100" fill="none" xmlns="http://www.w3.org/2000/svg">
<path d="M40.549 63.2416C36.9476 59.8521 34.8292 55.1915 34.8292 49.8953C34.8292 44.5992 36.9476 39.9386 40.3372 36.5491C43.303 33.5832 43.303 28.9226 40.3372 25.9568C37.3713 22.991 32.7107 22.991 29.7449 25.9568C23.8132 32.1003 20 40.5741 20 49.8953C20 59.2165 23.8132 67.6904 29.9567 73.8339C32.9226 76.7997 37.5832 76.7997 40.549 73.8339C43.303 70.8681 43.303 66.2075 40.549 63.2416Z" fill="#FAE501"/>
<path d="M40.549 36.549C43.9385 32.9476 48.5991 30.8292 53.8953 30.8292C59.1914 30.8292 63.852 32.9476 67.2416 36.3372C70.2074 39.303 74.868 39.303 77.8338 36.3372C80.7997 33.3713 80.7997 28.7107 77.8338 25.7449C71.6903 19.8132 63.2165 16 53.8953 16C44.5741 16 36.1003 19.8132 29.9567 25.9567C26.9909 28.9226 26.9909 33.5832 29.9567 36.549C32.9226 39.303 37.5832 39.303 40.549 36.549Z" fill="#4FB5E1"/>
<path d="M67.2416 63.2418C63.852 66.8431 59.1914 68.9616 53.8953 68.9616C48.5991 68.9616 43.9385 66.8431 40.549 63.4536C37.5832 60.4878 32.9226 60.4878 29.9567 63.4536C26.9909 66.4194 26.9909 71.08 29.9567 74.0459C36.1003 79.9776 44.5741 83.7908 53.8953 83.7908C63.2165 83.7908 71.6903 79.9776 77.8338 73.834C80.7997 70.8682 80.7997 66.2076 77.8338 63.2418C74.868 60.4878 70.2074 60.4878 67.2416 63.2418Z" fill="#F05751"/>
<path d="M35.2529 38.6676C39.3479 38.6676 42.6675 35.3479 42.6675 31.253C42.6675 27.158 39.3479 23.8384 35.2529 23.8384C31.1579 23.8384 27.8383 27.158 27.8383 31.253C27.8383 35.3479 31.1579 38.6676 35.2529 38.6676Z" fill="#0681B6"/>
<path d="M35.2529 75.9522C39.3479 75.9522 42.6675 72.6326 42.6675 68.5376C42.6675 64.4427 39.3479 61.123 35.2529 61.123C31.1579 61.123 27.8383 64.4427 27.8383 68.5376C27.8383 72.6326 31.1579 75.9522 35.2529 75.9522Z" fill="#CD4739"/>
</svg>
