<svg width="100" height="100" viewBox="0 0 100 100" fill="none" xmlns="http://www.w3.org/2000/svg">
<g clip-path="url(#clip0_356_7812)">
<path d="M50.1439 84.8207L29.6538 79.1325L25.0876 27.918H75.2616L70.6906 79.1245L50.1439 84.8207Z" fill="#264DE4"/>
<path d="M66.7773 75.8638L70.6835 32.1055H50.1746V80.4667L66.7773 75.8638Z" fill="#2965F1"/>
<path d="M35.5554 51.1001L36.1184 57.3813H50.1746V51.1001H35.5554Z" fill="#EBEBEB"/>
<path d="M34.4241 38.3867L34.9951 44.668H50.1745V38.3867H34.4241Z" fill="#EBEBEB"/>
<path d="M50.1745 67.4132L50.147 67.4205L43.1515 65.5316L42.7043 60.522H36.3989L37.2789 70.3844L50.1456 73.9563L50.1745 73.9483V67.4132Z" fill="#EBEBEB"/>
<path d="M36.8958 14H44.5034V17.1814H40.0771V20.3628H44.5034V23.5442H36.8958V14Z" fill="white"/>
<path d="M46.0249 14H53.6326V16.7664H49.2063V17.3197H53.6326V23.6825H46.0249V20.7778H50.4512V20.2245H46.0249V14Z" fill="white"/>
<path d="M55.1541 14H62.7617V16.7664H58.3354V17.3197H62.7617V23.6825H55.1541V20.7778H59.5803V20.2245H55.1541V14Z" fill="white"/>
<path d="M64.7535 51.1001L65.8875 38.3867H50.1528V44.668H59.0038L58.4322 51.1001H50.1528V57.3813H57.8875L57.1584 65.5276L50.1528 67.4185V73.9533L63.0297 70.3845L63.1242 69.3233L64.6002 52.7868L64.7535 51.1001Z" fill="white"/>
</g>
<defs>
<clipPath id="clip0_356_7812">
<rect width="50.349" height="71" fill="white" transform="translate(25 14)"/>
</clipPath>
</defs>
</svg>
