<svg width="100" height="100" viewBox="0 0 100 100" fill="none" xmlns="http://www.w3.org/2000/svg">
<rect x="17" y="17" width="66" height="66" rx="7" fill="white"/>
<g clip-path="url(#clip0_356_8001)">
<path d="M23.6206 52.9147C23.3612 51.9702 23.2291 50.9891 23.2291 50.0009C23.2291 45.4899 26.0622 41.3653 30.2794 39.7388L30.8323 41.1698C27.2023 42.5702 24.7642 46.1189 24.7642 50.0009C24.7642 50.8524 24.8773 51.6957 25.1002 52.5084L23.6206 52.9147Z" fill="#69D3A7"/>
<path d="M42.6859 45.6428C41.0447 42.4922 37.8143 40.5347 34.2574 40.5347C32.997 40.5347 31.7721 40.7773 30.6191 41.2543L30.0308 39.8374C31.3712 39.2827 32.7931 39 34.2574 39C38.3897 39 42.1412 41.2731 44.0476 44.9337L42.6859 45.6428Z" fill="url(#paint0_linear_356_8001)"/>
<path d="M30.9644 47.7309C31.8545 47.7309 32.5796 48.2056 32.9522 49.0335L32.9817 49.0983L34.4766 48.5907L34.4448 48.5141C33.8659 47.1043 32.5324 46.228 30.9644 46.228C29.8621 46.228 28.9661 46.5814 28.2257 47.3069C27.49 48.0277 27.1174 48.9346 27.1174 50.0029C27.1174 51.0617 27.49 51.9639 28.2257 52.6847C28.9661 53.4102 29.8621 53.7636 30.9644 53.7636C32.5324 53.7636 33.8659 52.8873 34.4448 51.4786L34.4766 51.4021L32.9793 50.8933L32.951 50.9604C32.6173 51.7743 31.8746 52.2607 30.9644 52.2607C30.3443 52.2607 29.8208 52.044 29.4058 51.6176C28.9861 51.1854 28.7739 50.6424 28.7739 50.0041C28.7739 49.361 28.9814 48.8286 29.4058 48.3763C29.8196 47.9476 30.3443 47.7309 30.9644 47.7309Z" fill="#1B1E2E"/>
<path d="M49.3858 47.3081C48.6961 46.592 47.8355 46.228 46.8263 46.228C45.8241 46.228 44.9989 46.5849 44.3717 47.2881V46.367H42.7565V56.403H44.3717V52.7035C44.9989 53.4067 45.823 53.7636 46.8263 53.7636C47.8355 53.7636 48.6973 53.3996 49.387 52.6824C50.0661 51.9615 50.4092 51.0605 50.4092 50.0029C50.408 48.9346 50.0649 48.0289 49.3858 47.3081ZM48.1196 51.6153C47.7058 52.0428 47.1812 52.2584 46.5622 52.2584C45.9338 52.2584 45.4245 52.0475 45.0036 51.6153C44.5839 51.183 44.3717 50.6401 44.3717 50.0017C44.3717 49.3445 44.578 48.8121 45.0036 48.374C45.4233 47.9405 45.9326 47.7309 46.5622 47.7309C47.1823 47.7309 47.7058 47.9476 48.1196 48.374C48.5358 48.8027 48.7374 49.3351 48.7374 50.0017C48.7374 50.6589 48.5346 51.1866 48.1196 51.6153Z" fill="#1B1E2E"/>
<path d="M53.0383 47.2315V46.367H51.4231V53.6234H53.0383V49.5293C53.0383 48.8733 53.3024 48.3716 53.8235 48.0382C54.3411 47.7073 54.9624 47.646 55.7229 47.8533L55.8207 47.8804V46.3281L55.7606 46.3139C54.7396 46.0702 53.715 46.4211 53.0383 47.2315Z" fill="#1B1E2E"/>
<path d="M60.0108 46.228C58.9462 46.228 58.0431 46.5908 57.3263 47.3069C56.6 48.0324 56.2322 48.9393 56.2322 50.0029C56.2322 51.0617 56.6047 51.9639 57.3404 52.6847C58.0808 53.4102 58.9768 53.7636 60.0792 53.7636C61.5729 53.7636 62.8568 53.0051 63.5147 51.7342L63.5524 51.6612L62.186 51.0558L62.153 51.1206C61.7568 51.8862 60.9964 52.3432 60.1216 52.3432C58.9851 52.3432 58.115 51.6494 57.8792 50.567H63.7387L63.7458 50.4975C63.8731 49.3268 63.5713 48.3116 62.8509 47.4789C62.1341 46.6485 61.178 46.228 60.0108 46.228ZM57.9275 49.2715C58.214 48.2809 59.0228 47.6473 60.0108 47.6473C61.0259 47.6473 61.8347 48.2809 62.0964 49.2715H57.9275Z" fill="#1B1E2E"/>
<path d="M68.0609 49.3105C67.1802 49.1456 66.4198 49.0019 66.4198 48.3895C66.4198 47.903 66.9373 47.5638 67.6777 47.5638C68.4947 47.5638 68.9428 47.9148 69.0477 48.6368L69.0595 48.7181L70.6745 48.3801L70.663 48.307C70.4458 47.0244 69.3022 46.2271 67.6789 46.2271C66.8642 46.2271 66.1745 46.4379 65.6298 46.8536C65.0734 47.2671 64.7916 47.8065 64.7916 48.459C64.7916 49.4035 65.3905 50.1126 66.3962 50.3552C66.6567 50.4164 66.9326 50.4659 67.1991 50.5154C68.2 50.698 69.1455 50.8711 69.1455 51.5448C69.1455 52.0642 68.5419 52.4258 67.6789 52.4258C66.8006 52.4258 66.316 52.0748 66.1969 51.3516L66.184 51.2715L64.5699 51.6096L64.5829 51.6837C64.8175 52.9852 65.9741 53.7626 67.6777 53.7626C68.5431 53.7626 69.2848 53.547 69.8788 53.123C70.4733 52.7037 70.7735 52.1631 70.7735 51.5165C70.7735 49.8205 69.2706 49.5378 68.0609 49.3105Z" fill="#1B1E2E"/>
<path d="M75.0579 49.3105C74.1775 49.1456 73.4171 49.0019 73.4171 48.3895C73.4171 47.903 73.9346 47.5638 74.6748 47.5638C75.492 47.5638 75.9398 47.9148 76.0447 48.6368L76.0566 48.7181L77.6718 48.3801L77.6599 48.307C77.4431 47.0244 76.2996 46.2271 74.6761 46.2271C73.8612 46.2271 73.1714 46.4379 72.6269 46.8536C72.0705 47.2671 71.7886 47.8065 71.7886 48.459C71.7886 49.4035 72.3877 50.1126 73.3933 50.3552C73.6541 50.4164 73.9295 50.4659 74.1963 50.5154C75.1973 50.698 76.1428 50.8711 76.1428 51.5448C76.1428 52.0642 75.5392 52.4258 74.6761 52.4258C73.7975 52.4258 73.3131 52.0748 73.1939 51.3516L73.1811 51.2715L71.5673 51.6096L71.5801 51.6837C71.8148 52.9852 72.9711 53.7626 74.6748 53.7626C75.5401 53.7626 76.2817 53.547 76.8761 53.123C77.4701 52.7037 77.7708 52.1631 77.7708 51.5165C77.7708 49.8205 76.2675 49.5378 75.0579 49.3105Z" fill="#1B1E2E"/>
<path d="M40.3278 46.3672L38.1974 51.7579L36.0529 46.3672H34.2986L37.3061 53.7249L35.1663 58.9142L36.7002 59.2193L41.9855 46.3672H40.3278Z" fill="#1B1E2E"/>
<path d="M35.4407 58.245L35.067 59.1496C34.9927 59.3286 34.8229 59.4499 34.6319 59.4581C34.5058 59.4628 34.3785 59.4664 34.2499 59.4664C29.8512 59.464 25.9594 56.3629 24.995 52.0898L23.4977 52.4279C24.0388 54.8247 25.397 57.0001 27.3223 58.5548C29.27 60.1271 31.7234 60.9951 34.2334 60.9998C34.237 60.9998 34.2558 60.9998 34.2558 60.9998C34.4032 60.9998 34.5494 60.9963 34.6956 60.9904C35.4831 60.9574 36.187 60.464 36.4876 59.7326L36.9757 58.5501L35.4407 58.245Z" fill="url(#paint1_linear_356_8001)"/>
</g>
<defs>
<linearGradient id="paint0_linear_356_8001" x1="33.1098" y1="38.2898" x2="41.4813" y2="47.2373" gradientUnits="userSpaceOnUse">
<stop offset="0.0939" stop-color="#58D09E"/>
<stop offset="0.9883" stop-color="#58D09E" stop-opacity="0"/>
</linearGradient>
<linearGradient id="paint1_linear_356_8001" x1="23.1116" y1="55.0055" x2="39.1049" y2="59.2624" gradientUnits="userSpaceOnUse">
<stop offset="0.0774" stop-color="#58D09E"/>
<stop offset="0.7617" stop-color="#1B1E2E"/>
</linearGradient>
<clipPath id="clip0_356_8001">
<rect width="55" height="22" fill="white" transform="translate(23 39)"/>
</clipPath>
</defs>
</svg>
