<svg width="100" height="100" viewBox="0 0 100 100" fill="none" xmlns="http://www.w3.org/2000/svg">
<rect x="17" y="17" width="66" height="66" rx="7" fill="white"/>
<path d="M24.3351 54.6293V48.8984H31.4903V48.5633H24.3351V43.3351H31.9428V43H24V54.9644H32.0098V54.6293H24.3351ZM38.4612 46.3514L35.4952 50.2557L32.5963 46.3514H32.1606L35.2941 50.5071L31.859 54.9644H32.2611L35.4952 50.7584L38.7461 54.9644H39.165L35.7131 50.5071L38.8634 46.3514H38.4612ZM40.1704 57.9136V52.5514H40.2039C40.405 53.3334 40.8016 53.9618 41.3937 54.4366C41.9857 54.9114 42.7398 55.1487 43.6558 55.1487C44.2479 55.1487 44.773 55.0287 45.231 54.7885C45.689 54.5483 46.0716 54.2215 46.3788 53.8082C46.686 53.3949 46.9206 52.9145 47.0826 52.3671C47.2446 51.8197 47.3256 51.2444 47.3256 50.6411C47.3256 49.9932 47.2418 49.3955 47.0742 48.8482C46.9067 48.3008 46.6637 47.826 46.3453 47.4238C46.0269 47.0217 45.6415 46.7089 45.1891 46.4854C44.7366 46.262 44.2256 46.1503 43.6558 46.1503C43.2201 46.1503 42.8152 46.2145 42.441 46.343C42.0667 46.4715 41.7344 46.653 41.4439 46.8876C41.1535 47.1222 40.9021 47.3987 40.6899 47.7171C40.4776 48.0354 40.3156 48.3845 40.2039 48.7644H40.1704V46.3514H39.8353V57.9136H40.1704ZM43.6558 54.8304C42.6057 54.8304 41.7623 54.4701 41.1255 53.7495C40.4888 53.029 40.1704 51.9929 40.1704 50.6411C40.1704 50.0826 40.2486 49.5519 40.405 49.0492C40.5614 48.5465 40.7876 48.1053 41.0836 47.7254C41.3797 47.3456 41.7455 47.044 42.1812 46.8206C42.6169 46.5971 43.1084 46.4854 43.6558 46.4854C44.2144 46.4854 44.7031 46.5971 45.1221 46.8206C45.541 47.044 45.8873 47.3484 46.161 47.7338C46.4347 48.1192 46.6413 48.5605 46.781 49.0576C46.9206 49.5547 46.9905 50.0826 46.9905 50.6411C46.9905 51.1439 46.9262 51.6438 46.7977 52.1409C46.6693 52.638 46.471 53.0849 46.2029 53.4814C45.9348 53.878 45.5913 54.202 45.1723 54.4533C44.7534 54.7047 44.2479 54.8304 43.6558 54.8304ZM49.1688 54.9644V50.0882C49.1688 49.619 49.2359 49.161 49.3699 48.7141C49.504 48.2672 49.7107 47.8735 49.9899 47.5327C50.2692 47.192 50.6239 46.9239 51.054 46.7284C51.4841 46.5329 51.9952 46.4519 52.5873 46.4854V46.1503C52.0734 46.1391 51.6237 46.195 51.2383 46.3179C50.8529 46.4407 50.5206 46.6083 50.2413 46.8206C49.962 47.0328 49.7386 47.2814 49.571 47.5663C49.4034 47.8511 49.2806 48.1555 49.2024 48.4795H49.1688V46.3514H48.8337V54.9644H49.1688ZM53.0062 50.7249H60.2116C60.234 50.1328 60.1753 49.5631 60.0357 49.0157C59.896 48.4683 59.6726 47.9824 59.3654 47.5579C59.0582 47.1334 58.6616 46.7926 58.1757 46.5357C57.6897 46.2788 57.1116 46.1503 56.4413 46.1503C55.961 46.1503 55.4918 46.2508 55.0338 46.4519C54.5757 46.653 54.1736 46.9462 53.8273 47.3317C53.481 47.7171 53.2017 48.189 52.9894 48.7476C52.7772 49.3062 52.671 49.9429 52.671 50.6579C52.671 51.2947 52.7437 51.8895 52.8889 52.4425C53.0341 52.9955 53.2575 53.4758 53.5592 53.8836C53.8608 54.2914 54.249 54.6069 54.7238 54.8304C55.1985 55.0538 55.7711 55.1599 56.4413 55.1487C57.4244 55.1487 58.2511 54.8723 58.9214 54.3193C59.5916 53.7663 59.9882 52.9871 60.1111 51.9817H59.776C59.6307 52.9313 59.2593 53.6434 58.6616 54.1182C58.064 54.593 57.3127 54.8304 56.4078 54.8304C55.7934 54.8304 55.2739 54.7242 54.8494 54.512C54.4249 54.2997 54.0786 54.0093 53.8105 53.6406C53.5424 53.272 53.3441 52.8391 53.2156 52.342C53.0872 51.8448 53.0173 51.3058 53.0062 50.7249ZM59.8765 50.3898H53.0062C53.0397 49.7865 53.1514 49.2447 53.3413 48.7644C53.5312 48.284 53.7798 47.8735 54.087 47.5327C54.3942 47.192 54.7517 46.9323 55.1594 46.7535C55.5672 46.5748 56.0057 46.4854 56.4749 46.4854C57.0334 46.4854 57.5249 46.5888 57.9495 46.7954C58.374 47.0021 58.7287 47.2842 59.0135 47.6417C59.2984 47.9991 59.5134 48.4153 59.6587 48.89C59.8039 49.3648 59.8765 49.8647 59.8765 50.3898ZM67.1657 48.8984H67.5009C67.5009 47.9377 67.2216 47.2395 66.663 46.8038C66.1045 46.3681 65.3448 46.1503 64.3841 46.1503C63.8479 46.1503 63.3954 46.2173 63.0268 46.3514C62.6581 46.4854 62.3565 46.6586 62.1219 46.8708C61.8873 47.0831 61.7198 47.3177 61.6192 47.5746C61.5187 47.8316 61.4684 48.0773 61.4684 48.3119C61.4684 48.7811 61.5522 49.1554 61.7198 49.4346C61.8873 49.7139 62.1498 49.9318 62.5073 50.0882C62.7531 50.1999 63.0324 50.3004 63.3452 50.3898C63.658 50.4792 64.021 50.5741 64.4344 50.6747C64.803 50.764 65.1661 50.8534 65.5236 50.9428C65.8811 51.0321 66.1966 51.1522 66.4703 51.303C66.744 51.4539 66.9675 51.6466 67.1406 51.8812C67.3138 52.1157 67.4003 52.423 67.4003 52.8028C67.4003 53.1714 67.3138 53.4842 67.1406 53.7412C66.9675 53.9981 66.7468 54.2076 66.4787 54.3695C66.2106 54.5315 65.9118 54.6488 65.5822 54.7214C65.2527 54.7941 64.9315 54.8304 64.6187 54.8304C63.6021 54.8304 62.8229 54.6041 62.2811 54.1517C61.7393 53.6993 61.4684 52.9871 61.4684 52.0152H61.1333C61.1333 53.0988 61.4265 53.892 62.013 54.3947C62.5995 54.8974 63.4681 55.1487 64.6187 55.1487C64.9874 55.1487 65.3588 55.1069 65.733 55.0231C66.1073 54.9393 66.4424 54.8024 66.7384 54.6125C67.0345 54.4226 67.2747 54.1768 67.459 53.8752C67.6433 53.5736 67.7355 53.2049 67.7355 52.7693C67.7355 52.3559 67.6545 52.0208 67.4925 51.7639C67.3305 51.5069 67.1183 51.2947 66.8557 51.1271C66.5932 50.9595 66.2972 50.8283 65.9676 50.7333C65.6381 50.6383 65.3057 50.5462 64.9706 50.4568C64.5014 50.3339 64.0909 50.2278 63.739 50.1384C63.3871 50.0491 63.0603 49.9429 62.7587 49.8201C62.4682 49.6972 62.2364 49.5212 62.0633 49.2922C61.8901 49.0632 61.8035 48.7364 61.8035 48.3119C61.8035 48.2337 61.8259 48.0941 61.8706 47.893C61.9153 47.6919 62.0214 47.4881 62.1889 47.2814C62.3565 47.0747 62.6135 46.8904 62.9598 46.7284C63.3061 46.5664 63.7809 46.4854 64.3841 46.4854C64.7974 46.4854 65.1745 46.5301 65.5152 46.6195C65.8559 46.7089 66.1492 46.8513 66.3949 47.0468C66.6407 47.2423 66.8306 47.4908 66.9647 47.7925C67.0987 48.0941 67.1657 48.4627 67.1657 48.8984ZM74.9242 48.8984H75.2593C75.2593 47.9377 74.98 47.2395 74.4215 46.8038C73.8629 46.3681 73.1033 46.1503 72.1425 46.1503C71.6063 46.1503 71.1539 46.2173 70.7852 46.3514C70.4166 46.4854 70.115 46.6586 69.8804 46.8708C69.6458 47.0831 69.4782 47.3177 69.3777 47.5746C69.2771 47.8316 69.2268 48.0773 69.2268 48.3119C69.2268 48.7811 69.3106 49.1554 69.4782 49.4346C69.6458 49.7139 69.9083 49.9318 70.2658 50.0882C70.5115 50.1999 70.7908 50.3004 71.1036 50.3898C71.4164 50.4792 71.7795 50.5741 72.1928 50.6747C72.5615 50.764 72.9245 50.8534 73.282 50.9428C73.6395 51.0321 73.9551 51.1522 74.2288 51.303C74.5025 51.4539 74.7259 51.6466 74.8991 51.8812C75.0722 52.1157 75.1588 52.423 75.1588 52.8028C75.1588 53.1714 75.0722 53.4842 74.8991 53.7412C74.7259 53.9981 74.5053 54.2076 74.2372 54.3695C73.969 54.5315 73.6702 54.6488 73.3407 54.7214C73.0111 54.7941 72.6899 54.8304 72.3771 54.8304C71.3605 54.8304 70.5814 54.6041 70.0396 54.1517C69.4977 53.6993 69.2268 52.9871 69.2268 52.0152H68.8917C68.8917 53.0988 69.1849 53.892 69.7714 54.3947C70.3579 54.8974 71.2265 55.1487 72.3771 55.1487C72.7458 55.1487 73.1172 55.1069 73.4915 55.0231C73.8657 54.9393 74.2008 54.8024 74.4969 54.6125C74.7929 54.4226 75.0331 54.1768 75.2174 53.8752C75.4018 53.5736 75.4939 53.2049 75.4939 52.7693C75.4939 52.3559 75.4129 52.0208 75.2509 51.7639C75.089 51.5069 74.8767 51.2947 74.6142 51.1271C74.3517 50.9595 74.0556 50.8283 73.7261 50.7333C73.3965 50.6383 73.0642 50.5462 72.729 50.4568C72.2598 50.3339 71.8493 50.2278 71.4974 50.1384C71.1455 50.0491 70.8187 49.9429 70.5171 49.8201C70.2267 49.6972 69.9949 49.5212 69.8217 49.2922C69.6486 49.0632 69.562 48.7364 69.562 48.3119C69.562 48.2337 69.5843 48.0941 69.629 47.893C69.6737 47.6919 69.7798 47.4881 69.9474 47.2814C70.115 47.0747 70.3719 46.8904 70.7182 46.7284C71.0645 46.5664 71.5393 46.4854 72.1425 46.4854C72.5559 46.4854 72.9329 46.5301 73.2736 46.6195C73.6144 46.7089 73.9076 46.8513 74.1534 47.0468C74.3991 47.2423 74.589 47.4908 74.7231 47.7925C74.8572 48.0941 74.9242 48.4627 74.9242 48.8984Z" fill="black"/>
</svg>
