<svg width="100" height="100" viewBox="0 0 100 100" fill="none" xmlns="http://www.w3.org/2000/svg">
<g clip-path="url(#clip0_356_7810)">
<path d="M38.6667 85.0003C45.1067 85.0003 50.3333 79.7737 50.3333 73.3337V61.667H38.6667C32.2267 61.667 27 66.8937 27 73.3337C27 79.7737 32.2267 85.0003 38.6667 85.0003Z" fill="#0ACF83"/>
<path d="M27 49.9997C27 43.5597 32.2267 38.333 38.6667 38.333H50.3333V61.6663H38.6667C32.2267 61.6663 27 56.4397 27 49.9997Z" fill="#A259FF"/>
<path d="M27 26.6667C27 20.2267 32.2267 15 38.6667 15H50.3333V38.3333H38.6667C32.2267 38.3333 27 33.1067 27 26.6667Z" fill="#F24E1E"/>
<path d="M50.3335 15H62.0002C68.4402 15 73.6668 20.2267 73.6668 26.6667C73.6668 33.1067 68.4402 38.3333 62.0002 38.3333H50.3335V15Z" fill="#FF7262"/>
<path d="M73.6668 49.9997C73.6668 56.4397 68.4402 61.6663 62.0002 61.6663C55.5602 61.6663 50.3335 56.4397 50.3335 49.9997C50.3335 43.5597 55.5602 38.333 62.0002 38.333C68.4402 38.333 73.6668 43.5597 73.6668 49.9997Z" fill="#1ABCFE"/>
</g>
<defs>
<clipPath id="clip0_356_7810">
<rect width="46.6667" height="70" fill="white" transform="translate(27 15)"/>
</clipPath>
</defs>
</svg>
