<svg width="100" height="100" viewBox="0 0 100 100" fill="none" xmlns="http://www.w3.org/2000/svg">
<g clip-path="url(#clip0_356_7814)">
<path d="M50.5 16C31.9985 16 17 30.9984 17 49.5C17 68.0016 31.9985 83 50.5 83C69.0016 83 84 68.0016 84 49.5C84 30.9984 69.0016 16 50.5 16ZM24.1983 49.8492L50.1507 75.8017C35.8999 75.6159 24.384 64.1001 24.1983 49.8492ZM56.3877 75.1441L24.8559 43.6123C27.5297 31.9186 37.9957 23.1939 50.5 23.1939C59.2407 23.1939 66.9843 27.4581 71.768 34.0184L68.1257 37.2322C64.2454 31.6675 57.7984 28.0256 50.5 28.0256C41.2076 28.0256 33.2945 33.928 30.3035 42.188L57.8121 69.6966C64.4925 67.2774 69.6304 61.6381 71.3511 54.6538H59.9487V49.5001H71.9744L76.8061 49.4999C76.8061 62.0042 68.0815 72.4703 56.3877 75.1441Z" fill="#744C9E"/>
</g>
<defs>
<clipPath id="clip0_356_7814">
<rect width="67" height="67" fill="white" transform="translate(17 16)"/>
</clipPath>
</defs>
</svg>
