<svg width="100" height="100" viewBox="0 0 100 100" fill="none" xmlns="http://www.w3.org/2000/svg">
<g clip-path="url(#clip0_356_7815)">
<path d="M83.68 46.881L53.1169 16.3203C51.3581 14.5599 48.5032 14.5599 46.7421 16.3203L40.3957 22.6667L48.4464 30.7174C50.3174 30.0853 52.4625 30.5093 53.9541 32.0008C55.4525 33.5016 55.8734 35.6652 55.226 37.5423L62.9848 45.3012C64.8619 44.6545 67.0278 45.073 68.5271 46.5746C70.6223 48.6691 70.6223 52.0639 68.5271 54.1599C66.4311 56.2559 63.0363 56.2559 60.9395 54.1599C59.3635 52.5823 58.9741 50.2674 59.7721 48.3257L52.5363 41.0899L52.5355 60.1315C53.0462 60.3849 53.5286 60.7221 53.9541 61.1461C56.0493 63.2405 56.0493 66.6353 53.9541 68.7329C51.8581 70.8281 48.4617 70.8281 46.3688 68.7329C44.2736 66.6353 44.2736 63.2405 46.3688 61.1461C46.8865 60.6292 47.4855 60.2382 48.1246 59.9755V40.7566C47.4855 40.4955 46.8872 40.1068 46.3688 39.5861C44.7812 38.0008 44.3995 35.6713 45.2129 33.722L37.2774 25.785L16.3211 46.7397C14.56 48.5016 14.56 51.3565 16.3211 53.1168L46.8842 83.6784C48.6438 85.4387 51.4978 85.4387 53.2598 83.6784L83.68 53.2589C85.4403 51.4978 85.4403 48.6414 83.68 46.881Z" fill="#DE4C36"/>
</g>
<defs>
<clipPath id="clip0_356_7815">
<rect width="70" height="70" fill="white" transform="translate(15 15)"/>
</clipPath>
</defs>
</svg>
