<svg width="100" height="100" viewBox="0 0 100 100" fill="none" xmlns="http://www.w3.org/2000/svg">
<rect x="17" y="17" width="66" height="66" rx="7" fill="white"/>
<path d="M49.5762 26C36.0049 26 25 37.0029 25 50.5762C25 61.4346 32.0418 70.6468 41.8067 73.8965C43.0349 74.124 43.4859 73.3634 43.4859 72.7142C43.4859 72.1282 43.4631 70.1922 43.4525 68.1387C36.6154 69.6253 35.1727 65.239 35.1727 65.239C34.0547 62.3983 32.4439 61.643 32.4439 61.643C30.2141 60.1177 32.612 60.149 32.612 60.149C35.0799 60.3224 36.3793 62.6816 36.3793 62.6816C38.5713 66.4387 42.1286 65.3525 43.531 64.7246C43.7516 63.1362 44.3885 62.052 45.0914 61.4383C39.6327 60.8168 33.8944 58.7095 33.8944 49.2926C33.8944 46.6095 34.8544 44.4171 36.4265 42.696C36.1714 42.077 35.3302 39.5774 36.6646 36.1922C36.6646 36.1922 38.7284 35.5317 43.4248 38.7114C45.3852 38.1668 47.4876 37.8937 49.5762 37.8844C51.6648 37.8937 53.7688 38.1668 55.7329 38.7114C60.4236 35.5317 62.4845 36.1922 62.4845 36.1922C63.8222 39.5774 62.9806 42.077 62.7255 42.696C64.3013 44.4171 65.2548 46.6095 65.2548 49.2926C65.2548 58.7319 59.5055 60.8103 54.033 61.4187C54.9145 62.1814 55.6999 63.677 55.6999 65.9699C55.6999 69.2582 55.6714 71.9048 55.6714 72.7142C55.6714 73.3682 56.1138 74.1346 57.3595 73.8932C67.1191 70.6399 74.152 61.431 74.152 50.5762C74.152 37.0029 63.1487 26 49.5762 26ZM34.2046 61.0093C34.1505 61.1314 33.9584 61.168 33.7834 61.0842C33.6051 61.004 33.505 60.8376 33.5628 60.7151C33.6157 60.5893 33.8082 60.5543 33.986 60.6386C34.1647 60.7187 34.2664 60.8868 34.2046 61.0093ZM35.4135 62.088C35.2963 62.1966 35.0671 62.1462 34.9117 61.9744C34.7509 61.8031 34.7208 61.574 34.8396 61.4637C34.9605 61.355 35.1827 61.4059 35.3439 61.5772C35.5046 61.7506 35.536 61.9781 35.4135 62.088ZM36.2428 63.4681C36.0922 63.5727 35.846 63.4746 35.6938 63.2561C35.5432 63.0375 35.5432 62.7754 35.697 62.6704C35.8497 62.5654 36.0922 62.6599 36.2465 62.8768C36.3966 63.099 36.3966 63.3611 36.2428 63.4681ZM37.6454 65.0665C37.5107 65.215 37.2238 65.1751 37.0138 64.9725C36.7989 64.7743 36.7391 64.493 36.8742 64.3445C37.0105 64.1955 37.299 64.2375 37.5107 64.4385C37.7239 64.6363 37.789 64.9195 37.6454 65.0665ZM39.4581 65.6061C39.3987 65.7986 39.1223 65.8861 38.844 65.8043C38.566 65.72 38.3841 65.4945 38.4402 65.3C38.498 65.1063 38.7756 65.0151 39.056 65.1026C39.3335 65.1865 39.5159 65.4103 39.4581 65.6061ZM41.521 65.8349C41.5279 66.0376 41.2919 66.2057 40.9997 66.2094C40.7058 66.2159 40.4682 66.0519 40.4649 65.8524C40.4649 65.6477 40.6957 65.4813 40.9895 65.4764C41.2817 65.4707 41.521 65.6335 41.521 65.8349ZM43.5476 65.7573C43.5826 65.955 43.3795 66.1581 43.0894 66.2122C42.8041 66.2643 42.54 66.1422 42.5037 65.9461C42.4683 65.7434 42.6751 65.5403 42.9599 65.4878C43.2505 65.4374 43.5106 65.5562 43.5476 65.7573Z" fill="#1E1E1E"/>
</svg>
