<svg width="100" height="100" viewBox="0 0 100 100" fill="none" xmlns="http://www.w3.org/2000/svg">
<path d="M15.7571 70.8335L18.8701 72.6309L53.5503 12.5648L50.4373 10.7675L15.7571 70.8335Z" fill="#E535AB"/>
<path d="M84.4052 66.0352H15.0449V69.6298H84.4052V66.0352Z" fill="#E535AB"/>
<path d="M16.4172 68.0538L51.1104 88.0845L52.9077 84.9715L18.2146 64.9408L16.4172 68.0538Z" fill="#E535AB"/>
<path d="M46.5549 15.8492L81.248 35.8799L83.0454 32.7669L48.3523 12.7362L46.5549 15.8492Z" fill="#E535AB"/>
<path d="M16.4268 32.7532L18.2241 35.8662L52.9173 15.8355L51.1199 12.7225L16.4268 32.7532Z" fill="#E535AB"/>
<path d="M45.9282 12.5653L80.6084 72.6313L83.7214 70.834L49.0413 10.768L45.9282 12.5653Z" fill="#E535AB"/>
<path d="M21.3891 30.3696H17.7944V70.431H21.3891V30.3696Z" fill="#E535AB"/>
<path d="M81.6762 30.3696H78.0815V70.431H81.6762V30.3696Z" fill="#E535AB"/>
<path d="M48.9281 83.8443L50.498 86.5635L80.6717 69.1422L79.1017 66.423L48.9281 83.8443Z" fill="#E535AB"/>
<path d="M86.4408 71.5997C84.362 75.216 79.7279 76.4504 76.1115 74.3715C72.4952 72.2927 71.2608 67.6585 73.3397 64.0422C75.4186 60.4258 80.0527 59.1915 83.669 61.2704C87.307 63.3709 88.5414 67.9833 86.4408 71.5997Z" fill="#E535AB"/>
<path d="M26.1103 36.7574C24.0314 40.3738 19.3973 41.6081 15.7809 39.5292C12.1646 37.4504 10.9303 32.8162 13.0091 29.1999C15.088 25.5835 19.7221 24.3492 23.3385 26.4281C26.9548 28.5286 28.1891 33.1411 26.1103 36.7574Z" fill="#E535AB"/>
<path d="M13.0311 71.5997C10.9522 67.9833 12.1866 63.3709 15.8029 61.2704C19.4193 59.1915 24.0317 60.4258 26.1323 64.0422C28.2111 67.6585 26.9768 72.271 23.3604 74.3715C19.7224 76.4504 15.11 75.216 13.0311 71.5997Z" fill="#E535AB"/>
<path d="M73.3612 36.7574C71.2823 33.1411 72.5166 28.5286 76.133 26.4281C79.7493 24.3492 84.3618 25.5835 86.4623 29.1999C88.5412 32.8162 87.3069 37.4287 83.6905 39.5292C80.0742 41.6081 75.44 40.3738 73.3612 36.7574Z" fill="#E535AB"/>
<path d="M49.7357 92.7996C45.5564 92.7996 42.1782 89.4215 42.1782 85.2421C42.1782 81.0627 45.5564 77.6846 49.7357 77.6846C53.9151 77.6846 57.2933 81.0627 57.2933 85.2421C57.2933 89.3998 53.9151 92.7996 49.7357 92.7996Z" fill="#E535AB"/>
<path d="M49.7357 23.115C45.5564 23.115 42.1782 19.7369 42.1782 15.5575C42.1782 11.3781 45.5564 8 49.7357 8C53.9151 8 57.2933 11.3781 57.2933 15.5575C57.2933 19.7369 53.9151 23.115 49.7357 23.115Z" fill="#E535AB"/>
</svg>
