<svg width="100" height="100" viewBox="0 0 100 100" fill="none" xmlns="http://www.w3.org/2000/svg">
<path d="M21.2257 67.942L23.8982 69.485L53.6708 17.9189L50.9983 16.3759L21.2257 67.942Z" fill="#E535AB"/>
<path d="M80.1591 63.8226H20.614V66.9086H80.1591V63.8226Z" fill="#E535AB"/>
<path d="M21.7917 65.5558L51.5754 82.752L53.1184 80.0795L23.3347 62.8833L21.7917 65.5558Z" fill="#E535AB"/>
<path d="M47.665 20.7383L77.4487 37.9344L78.9917 35.262L49.208 18.0658L47.665 20.7383Z" fill="#E535AB"/>
<path d="M21.8003 35.2502L23.3433 37.9227L53.127 20.7266L51.584 18.0541L21.8003 35.2502Z" fill="#E535AB"/>
<path d="M47.1269 17.9195L76.8994 69.4855L79.5719 67.9425L49.7993 16.3764L47.1269 17.9195Z" fill="#E535AB"/>
<path d="M26.0606 33.2039H22.9746V67.5962H26.0606V33.2039Z" fill="#E535AB"/>
<path d="M77.8165 33.2039H74.7305V67.5962H77.8165V33.2039Z" fill="#E535AB"/>
<path d="M49.7025 79.1116L51.0503 81.446L76.9541 66.49L75.6063 64.1556L49.7025 79.1116Z" fill="#E535AB"/>
<path d="M81.9065 68.5999C80.1218 71.7045 76.1435 72.7641 73.0389 70.9794C69.9343 69.1948 68.8746 65.2164 70.6593 62.1118C72.444 59.0072 76.4223 57.9476 79.5269 59.7322C82.6501 61.5355 83.7098 65.4953 81.9065 68.5999Z" fill="#E535AB"/>
<path d="M30.1135 38.6881C28.3289 41.7927 24.3505 42.8523 21.2459 41.0676C18.1413 39.283 17.0816 35.3046 18.8663 32.2C20.651 29.0954 24.6294 28.0357 27.734 29.8204C30.8386 31.6237 31.8982 35.5835 30.1135 38.6881Z" fill="#E535AB"/>
<path d="M18.8849 68.5999C17.1002 65.4953 18.1599 61.5355 21.2645 59.7322C24.3691 57.9476 28.3288 59.0072 30.1321 62.1118C31.9168 65.2164 30.8571 69.1762 27.7525 70.9794C24.6293 72.7641 20.6696 71.7045 18.8849 68.5999Z" fill="#E535AB"/>
<path d="M70.6776 38.6881C68.8929 35.5835 69.9526 31.6237 73.0572 29.8204C76.1618 28.0357 80.1215 29.0954 81.9248 32.2C83.7095 35.3046 82.6498 39.2644 79.5452 41.0676C76.4406 42.8523 72.4623 41.7927 70.6776 38.6881Z" fill="#E535AB"/>
<path d="M50.3955 86.7997C46.8076 86.7997 43.9075 83.8996 43.9075 80.3117C43.9075 76.7237 46.8076 73.8236 50.3955 73.8236C53.9835 73.8236 56.8836 76.7237 56.8836 80.3117C56.8836 83.881 53.9835 86.7997 50.3955 86.7997Z" fill="#E535AB"/>
<path d="M50.3955 26.9761C46.8076 26.9761 43.9075 24.076 43.9075 20.4881C43.9075 16.9001 46.8076 14 50.3955 14C53.9835 14 56.8836 16.9001 56.8836 20.4881C56.8836 24.076 53.9835 26.9761 50.3955 26.9761Z" fill="#E535AB"/>
</svg>

