<svg width="100" height="100" viewBox="0 0 100 100" fill="none" xmlns="http://www.w3.org/2000/svg">
<g clip-path="url(#clip0_356_7817)">
<path d="M74.913 27.9175L70.3737 79.124L49.9695 84.8202L29.6214 79.132L25.0869 27.9175H74.913Z" fill="#E44D26"/>
<path d="M50 80.4667L66.4876 75.8638L70.3668 32.1055H50V80.4667Z" fill="#F16529"/>
<path d="M41.1759 44.668H50.0001V38.3867H34.3589L34.5082 40.0719L36.0413 57.3813H50.0001V51.1001H41.746L41.1759 44.668Z" fill="#EBEBEB"/>
<path d="M42.5817 60.522H36.3201L37.194 70.3844L49.9714 73.9563L50.0002 73.9483V67.4132L49.9728 67.4205L43.0258 65.5316L42.5817 60.522Z" fill="#EBEBEB"/>
<path d="M29.7229 14H32.8928V17.1537H35.7925V14H38.9626V23.5503H35.7927V20.3523H32.893V23.5503H29.723L29.7229 14Z" fill="white"/>
<path d="M43.1312 17.167H40.3406V14H49.0933V17.167H46.3014V23.5503H43.1314L43.1312 17.167Z" fill="white"/>
<path d="M50.4822 14H53.7875L55.8208 17.3557L57.852 14H61.1586V23.5503H58.0017V18.8166L55.8208 22.2123H55.7662L53.5838 18.8166V23.5503H50.4822V14Z" fill="white"/>
<path d="M62.7363 14H65.9072V20.3935H70.365V23.5503H62.7363V14Z" fill="white"/>
<path d="M49.9785 57.3813H57.6596L56.9355 65.5276L49.9785 67.4184V73.9533L62.7662 70.3845L62.86 69.3233L64.3258 52.7868L64.478 51.1001H49.9785V57.3813Z" fill="white"/>
<path d="M49.9785 44.6527V44.668H65.0455L65.1707 43.2562L65.4549 40.0719L65.6041 38.3867H49.9785V44.6527Z" fill="white"/>
</g>
<defs>
<clipPath id="clip0_356_7817">
<rect width="50" height="71" fill="white" transform="translate(25 14)"/>
</clipPath>
</defs>
</svg>
