<svg width="100" height="100" viewBox="0 0 100 100" fill="none" xmlns="http://www.w3.org/2000/svg">
<path d="M17 17H83V83H17V17Z" fill="#F7DF1E"/>
<path d="M34.3536 72.1538L39.4044 69.0972C40.3788 70.8248 41.2652 72.2866 43.3913 72.2866C45.4294 72.2866 46.7143 71.4893 46.7143 68.3884V47.2998H52.9166V68.4761C52.9166 74.9001 49.151 77.8241 43.6572 77.8241C38.6956 77.8241 35.8155 75.2544 34.3535 72.1533" fill="black"/>
<path d="M56.2856 71.4894L61.3358 68.5653C62.6652 70.7364 64.3931 72.3312 67.4498 72.3312C70.0197 72.3312 71.6585 71.0463 71.6585 69.2742C71.6585 67.1476 69.9751 66.3944 67.1396 65.1543L65.5894 64.4893C61.1145 62.5846 58.1461 60.1922 58.1461 55.1416C58.1461 50.4897 61.6903 46.9453 67.2284 46.9453C71.1715 46.9453 74.0069 48.3188 76.0446 51.9075L71.2155 55.0085C70.1521 53.1036 69.0006 52.3506 67.2285 52.3506C65.4121 52.3506 64.2601 53.5025 64.2601 55.0085C64.2601 56.8693 65.4121 57.6226 68.07 58.7746L69.6205 59.4391C74.8926 61.6987 77.861 64.0022 77.861 69.1855C77.861 74.7681 73.4751 77.8247 67.5829 77.8247C61.8235 77.8247 58.1018 75.0781 56.2856 71.4894Z" fill="black"/>
</svg>
