<svg width="100" height="100" viewBox="0 0 100 100" fill="none" xmlns="http://www.w3.org/2000/svg">
<path d="M77.1936 49.3372C77.1936 45.7521 74.2874 42.8459 70.7021 42.8459C70.4716 42.8459 70.2441 42.8583 70.0199 42.8818L78.9358 16.5854H41.0463L49.9498 42.8589C49.8192 42.851 49.6879 42.8459 49.5554 42.8459C45.9703 42.8459 43.0639 45.7521 43.0639 49.3372C43.0639 52.2352 44.9631 54.6884 47.5842 55.5232C46.1999 57.9212 44.4578 60.081 42.48 61.9471C39.7907 64.4842 36.7128 66.4079 33.3838 67.5935C29.4204 65.5573 27.5487 61.0293 29.2376 57.0589C29.4282 56.6106 29.623 56.1562 29.809 55.7037C32.6805 55.0336 34.82 52.4595 34.82 49.3838C34.82 45.7988 31.9138 42.8925 28.3285 42.8925C24.7435 42.8925 21.8371 45.7988 21.8371 49.3838C21.8371 51.5823 22.931 53.5241 24.603 54.6984C22.9963 58.3566 20.6346 62.185 19.8988 66.6223C19.017 71.94 19.8959 77.5847 24.4952 80.7725C35.2065 88.1963 46.8335 76.1702 59.0927 73.1471C63.5356 72.0515 68.4125 72.2281 72.3269 69.961C75.2664 68.2584 77.2042 65.437 77.7542 62.2694C78.2975 59.1401 77.5054 56.0245 75.6838 53.4981C76.626 52.3714 77.1936 50.9209 77.1936 49.3372Z" fill="#99425B"/>
<path d="M76.1921 61.9979C75.7146 64.7479 74.0162 67.1502 71.5322 68.5889C69.2167 69.93 66.4419 70.3303 63.5041 70.7539C61.9303 70.9808 60.3029 71.2156 58.713 71.6077C54.5093 72.6442 50.4377 74.6667 46.5002 76.6225C38.6203 80.5365 31.8151 83.9163 25.3983 79.4692C20.698 76.2115 20.9151 70.1843 21.4627 66.8814C21.9702 63.8214 23.3422 61.0034 24.669 58.2779C24.8983 57.8067 25.1229 57.3443 25.3415 56.8858C25.9992 57.1485 26.6986 57.3278 27.4278 57.4093C26.0772 61.8666 28.2011 66.7132 32.6593 69.0035L33.2694 69.3169L33.9156 69.0869C37.4399 67.8317 40.6875 65.8176 43.568 63.0999C45.4299 61.3433 47.0308 59.3999 48.3466 57.3233C48.741 57.3828 49.1445 57.414 49.5553 57.414C53.6469 57.414 57.0352 54.3551 57.5595 50.4045C59.2343 50.3431 61.0133 50.3426 62.6978 50.4038C63.2218 54.3548 66.6103 57.414 70.702 57.414C72.4128 57.414 73.9998 56.8778 75.3072 55.967C76.2148 57.825 76.5536 59.9155 76.1921 61.9979ZM28.3284 44.4778C31.0338 44.4778 33.2345 46.6786 33.2345 49.3838C33.2345 50.3555 32.9494 51.2615 32.4598 52.0246C31.6442 53.2964 30.2583 54.1682 28.6655 54.277C28.554 54.2846 28.4418 54.2898 28.3284 54.2898C27.7257 54.2898 27.1481 54.1798 26.6141 53.9802C25.534 53.5759 24.634 52.801 24.0678 51.8114C23.658 51.0949 23.4224 50.2665 23.4224 49.3838C23.4224 46.6786 25.6233 44.4778 28.3284 44.4778ZM44.6492 49.3372C44.6492 46.8793 46.4661 44.8384 48.8271 44.4855C49.0647 44.4498 49.3079 44.4311 49.5553 44.4311C51.128 44.4311 52.5282 45.1763 53.4264 46.3308C53.6496 46.6176 53.8432 46.9288 53.999 47.2611C54.295 47.8921 54.4613 48.5954 54.4613 49.3372C54.4613 49.7294 54.4137 50.1107 54.3264 50.4764C53.8482 52.478 52.1415 54.0078 50.0502 54.2183C49.8876 54.2347 49.7224 54.2432 49.5553 54.2432C48.5758 54.2432 47.6632 53.9536 46.8964 53.457C45.5456 52.582 44.6492 51.0627 44.6492 49.3372ZM65.1252 43.5034C64.0742 44.509 63.2926 45.7938 62.9034 47.2386C61.0867 47.1704 59.1603 47.1704 57.354 47.2386C56.9391 45.6987 56.0786 44.3401 54.9211 43.3082L59.9975 33.0432L65.1252 43.5034ZM43.2576 18.1708H76.724L68.8197 41.4836C68.4771 41.5658 68.1429 41.6694 67.8185 41.7938L60.0101 25.8649L52.1796 41.6987C51.8411 41.5822 51.4923 41.4883 51.1353 41.4171L43.2576 18.1708ZM75.6081 49.3372C75.6081 49.8291 75.5345 50.304 75.3993 50.7523C75.0771 51.819 74.4011 52.733 73.5084 53.3579C72.7125 53.915 71.7451 54.2432 70.702 54.2432C68.4368 54.2432 66.5259 52.6995 65.9642 50.609C65.8551 50.2031 65.796 49.777 65.796 49.3372C65.796 48.6666 65.9316 48.0272 66.1762 47.4445C66.3022 47.1442 66.4595 46.8605 66.6401 46.5938C67.523 45.2907 69.0129 44.4311 70.702 44.4311C70.8569 44.4311 71.0098 44.4392 71.161 44.4533C73.6518 44.6854 75.6081 46.7867 75.6081 49.3372ZM78.7789 49.3372C78.7789 45.394 75.9378 42.1039 72.1958 41.401L81.1472 15H38.8351L47.8001 41.4547C44.1879 42.2585 41.4784 45.4864 41.4784 49.3372C41.4784 52.2286 43.0066 54.7686 45.2967 56.1958C44.1952 57.837 42.8888 59.3814 41.392 60.7936C39.0179 63.0333 36.3731 64.7318 33.5217 65.8493C30.6498 64.0453 29.4357 60.6432 30.6966 57.6793L30.7953 57.447C30.8572 57.3019 30.919 57.1566 30.9807 57.0112C34.1351 55.9109 36.4053 52.9085 36.4053 49.3838C36.4053 44.9301 32.782 41.3069 28.3284 41.3069C23.8749 41.3069 20.2516 44.9301 20.2516 49.3838C20.2516 51.6317 21.1756 53.6674 22.6627 55.1331C22.3932 55.7075 22.1094 56.2917 21.8181 56.8899C20.4585 59.6826 18.9175 62.8478 18.3347 66.3627C17.1772 73.3432 19.0443 78.9234 23.592 82.0753C26.3518 83.9879 29.1541 84.7399 31.9744 84.7399C37.2849 84.7399 42.6567 82.072 47.9107 79.4622C51.6946 77.5829 55.6074 75.6394 59.4723 74.6862C60.9103 74.3316 62.3901 74.1182 63.9568 73.8922C67.0634 73.444 70.2759 72.9808 73.1214 71.3328C76.4198 69.4222 78.6777 66.2175 79.3162 62.5404C79.8642 59.3837 79.2047 56.222 77.596 53.5407C78.3459 52.3154 78.7789 50.876 78.7789 49.3372Z" fill="white"/>
</svg>
