<svg width="100" height="100" viewBox="0 0 100 100" fill="none" xmlns="http://www.w3.org/2000/svg">
<rect x="17" y="17" width="66" height="66" rx="7" fill="white"/>
<path d="M26.1458 44.4425C25.6026 43.798 25.1348 43.1435 25.0393 43.0076C25.0292 42.9975 25.0141 42.9975 25.004 43.0076C24.9085 43.1435 24.4407 43.798 23.8975 44.4425C19.2352 50.3888 24.6319 54.4017 24.6319 54.4017L24.6771 54.4319C24.7174 55.0512 24.818 55.9424 24.818 55.9424H25.0191H25.2203C25.2203 55.9424 25.3209 55.0563 25.3611 54.4319L25.4064 54.3967C25.4114 54.4017 30.8082 50.3888 26.1458 44.4425ZM25.0191 54.3111C25.0191 54.3111 24.7777 54.1047 24.7123 53.999V53.9888L25.004 47.5139C25.004 47.4937 25.0342 47.4937 25.0342 47.5139L25.3259 53.9888V53.999C25.2606 54.1047 25.0191 54.3111 25.0191 54.3111Z" fill="#001E2B"/>
<path d="M35.1187 52.9897L32.8698 47.4971L32.8648 47.4819H31.1151V47.8511H31.3975C31.4832 47.8511 31.5639 47.8865 31.6244 47.9472C31.6849 48.0079 31.7151 48.0889 31.7151 48.1748L31.6647 53.7029C31.6647 53.8748 31.5236 54.0164 31.3521 54.0215L31.0647 54.0265V54.3907H32.769V54.0265L32.5925 54.0215C32.4211 54.0164 32.2799 53.8748 32.2799 53.7029V48.4935L34.7305 54.3907C34.7657 54.4766 34.8464 54.5323 34.9372 54.5323C35.028 54.5323 35.1086 54.4766 35.1439 54.3907L37.539 48.6249L37.5743 53.7029C37.5743 53.8799 37.4331 54.0215 37.2567 54.0265H37.0751V54.3907H39.0719V54.0265H38.7996C38.6282 54.0265 38.487 53.8799 38.4819 53.7079L38.4668 48.1799C38.4668 48.0029 38.608 47.8613 38.7794 47.8562L39.0719 47.8511V47.4819H37.3676L35.1187 52.9897Z" fill="#001E2B"/>
<path d="M50.7991 53.9298C50.7435 53.8741 50.7132 53.7981 50.7132 53.7069V50.9913C50.7132 50.4745 50.5615 50.0692 50.2582 49.7804C49.9599 49.4916 49.5454 49.3447 49.0297 49.3447C48.3068 49.3447 47.7355 49.6386 47.3361 50.2162C47.3311 50.2263 47.3159 50.2314 47.3008 50.2314C47.2856 50.2314 47.2755 50.2212 47.2755 50.206L47.0884 49.4815H46.775L45.9712 49.9425V50.1959H46.1785C46.2745 50.1959 46.3554 50.2212 46.411 50.2719C46.4666 50.3226 46.4969 50.3986 46.4969 50.5049V53.7018C46.4969 53.793 46.4666 53.869 46.411 53.9247C46.3554 53.9804 46.2796 54.0109 46.1886 54.0109H45.9863V54.3807H47.8366V54.0109H47.6344C47.5434 54.0109 47.4676 53.9804 47.412 53.9247C47.3564 53.869 47.326 53.793 47.326 53.7018V51.5841C47.326 51.3156 47.3867 51.047 47.4979 50.7836C47.6142 50.5252 47.7861 50.3074 48.0136 50.1402C48.2411 49.973 48.5141 49.8919 48.8275 49.8919C49.1814 49.8919 49.4493 50.0033 49.6161 50.2263C49.783 50.4492 49.8689 50.738 49.8689 51.0825V53.6968C49.8689 53.7879 49.8386 53.8639 49.783 53.9196C49.7274 53.9754 49.6515 54.0058 49.5605 54.0058H49.3583V54.3756H51.2086V54.0058H51.0064C50.9306 54.0159 50.8598 53.9855 50.7991 53.9298Z" fill="#001E2B"/>
<path d="M67.7038 47.8955C67.1923 47.6231 66.6207 47.4819 66.004 47.4819H63.5972V47.8501H63.8329C63.9231 47.8501 64.0033 47.8854 64.0835 47.9661C64.1588 48.0417 64.1989 48.1275 64.1989 48.2182V53.6449C64.1989 53.7356 64.1588 53.8214 64.0835 53.897C64.0084 53.9727 63.9231 54.013 63.8329 54.013H63.5972V54.3812H66.004C66.6207 54.3812 67.1923 54.24 67.7038 53.9677C68.2152 53.6953 68.6314 53.2918 68.9323 52.7775C69.2331 52.263 69.3885 51.6427 69.3885 50.9366C69.3885 50.2306 69.2331 49.6153 68.9323 49.0958C68.6264 48.5713 68.2152 48.1729 67.7038 47.8955ZM68.4208 50.9265C68.4208 51.5721 68.3055 52.1167 68.0798 52.5555C67.8542 52.9943 67.5533 53.3221 67.1823 53.534C66.8113 53.7458 66.4001 53.8517 65.9588 53.8517H65.4725C65.3822 53.8517 65.302 53.8164 65.2218 53.7356C65.1465 53.66 65.1064 53.5743 65.1064 53.4835V48.3645C65.1064 48.2737 65.1415 48.1931 65.2218 48.1123C65.297 48.0367 65.3822 47.9964 65.4725 47.9964H65.9588C66.4001 47.9964 66.8113 48.1023 67.1823 48.3141C67.5533 48.5259 67.8542 48.8537 68.0798 49.2925C68.3055 49.7363 68.4208 50.286 68.4208 50.9265Z" fill="#001E2B"/>
<path d="M75.0777 51.2947C74.8551 51.0375 74.4255 50.8206 73.9204 50.7046C74.6179 50.3566 74.9764 49.8674 74.9764 49.237C74.9764 48.8941 74.8858 48.5864 74.7035 48.3241C74.5217 48.0619 74.2639 47.8501 73.9355 47.7038C73.6067 47.5576 73.2224 47.4819 72.7878 47.4819H70.0635V47.8501H70.2808C70.3718 47.8501 70.4526 47.8854 70.5335 47.9661C70.6094 48.0417 70.6498 48.1275 70.6498 48.2182V53.6449C70.6498 53.7356 70.6094 53.8214 70.5335 53.897C70.4577 53.9727 70.3718 54.013 70.2808 54.013H70.0432V54.3812H73.0003C73.45 54.3812 73.8695 54.3056 74.2487 54.1542C74.628 54.003 74.9311 53.7811 75.1487 53.4885C75.3708 53.196 75.4821 52.8379 75.4821 52.4244C75.477 51.9806 75.3456 51.6023 75.0777 51.2947ZM71.686 53.7407C71.6102 53.665 71.5697 53.5793 71.5697 53.4885V51.0526H72.9752C73.4702 51.0526 73.8494 51.1787 74.1123 51.4308C74.3752 51.683 74.5066 52.0108 74.5066 52.4143C74.5066 52.6564 74.4457 52.8934 74.3349 53.1103C74.2185 53.3322 74.0463 53.5087 73.8141 53.6449C73.5865 53.7811 73.3035 53.8517 72.9752 53.8517H71.9387C71.8477 53.8517 71.7669 53.8164 71.686 53.7407ZM71.5748 50.5331V48.3696C71.5748 48.2788 71.6102 48.1981 71.691 48.1174C71.7669 48.0417 71.8528 48.0014 71.9438 48.0014H72.6111C73.091 48.0014 73.445 48.1225 73.6676 48.3544C73.8897 48.5915 74.001 48.8941 74.001 49.2673C74.001 49.6506 73.8947 49.9582 73.6877 50.1902C73.4803 50.4171 73.167 50.5331 72.7526 50.5331H71.5748Z" fill="#001E2B"/>
<path d="M43.7555 49.6664C43.3692 49.4553 42.9379 49.3447 42.4714 49.3447C42.0049 49.3447 41.5685 49.4503 41.1873 49.6664C40.801 49.8775 40.495 50.1841 40.2693 50.5711C40.0436 50.9581 39.9282 51.4105 39.9282 51.9131C39.9282 52.4157 40.0436 52.868 40.2693 53.2551C40.495 53.6421 40.801 53.9487 41.1873 54.1598C41.5735 54.3708 42.0049 54.4814 42.4714 54.4814C42.9379 54.4814 43.3743 54.3759 43.7555 54.1598C44.1418 53.9487 44.4477 53.6421 44.6735 53.2551C44.8992 52.868 45.0145 52.4157 45.0145 51.9131C45.0145 51.4105 44.8992 50.9581 44.6735 50.5711C44.4477 50.1841 44.1418 49.8775 43.7555 49.6664ZM44.1267 51.9131C44.1267 52.5313 43.9762 53.0339 43.6752 53.3958C43.3793 53.7576 42.973 53.9436 42.4714 53.9436C41.9698 53.9436 41.5635 53.7576 41.2675 53.3958C40.9665 53.0339 40.8161 52.5313 40.8161 51.9131C40.8161 51.2949 40.9665 50.7923 41.2675 50.4304C41.5635 50.0685 41.9698 49.8825 42.4714 49.8825C42.973 49.8825 43.3793 50.0685 43.6752 50.4304C43.9762 50.7923 44.1267 51.2949 44.1267 51.9131Z" fill="#001E2B"/>
<path d="M61.5321 49.6664C61.1459 49.4553 60.7145 49.3447 60.248 49.3447C59.7815 49.3447 59.3451 49.4503 58.9639 49.6664C58.5776 49.8775 58.2716 50.1841 58.0459 50.5711C57.8202 50.9581 57.7048 51.4105 57.7048 51.9131C57.7048 52.4157 57.8202 52.868 58.0459 53.2551C58.2716 53.6421 58.5776 53.9487 58.9639 54.1598C59.3501 54.3708 59.7815 54.4814 60.248 54.4814C60.7145 54.4814 61.1509 54.3759 61.5321 54.1598C61.9184 53.9487 62.2244 53.6421 62.4501 53.2551C62.6758 52.868 62.7912 52.4157 62.7912 51.9131C62.7912 51.4105 62.6758 50.9581 62.4501 50.5711C62.2244 50.1841 61.9133 49.8775 61.5321 49.6664ZM61.9033 51.9131C61.9033 52.5313 61.7528 53.0339 61.4518 53.3958C61.1559 53.7576 60.7496 53.9436 60.248 53.9436C59.7464 53.9436 59.3401 53.7576 59.0441 53.3958C58.7431 53.0339 58.5927 52.5313 58.5927 51.9131C58.5927 51.2898 58.7431 50.7923 59.0441 50.4304C59.3401 50.0685 59.7464 49.8825 60.248 49.8825C60.7496 49.8825 61.1559 50.0685 61.4518 50.4304C61.7478 50.7923 61.9033 51.2949 61.9033 51.9131Z" fill="#001E2B"/>
<path d="M54.3633 49.3447C53.9591 49.3447 53.5904 49.4305 53.2569 49.6022C52.9235 49.7739 52.6608 50.0062 52.4739 50.3041C52.287 50.5969 52.191 50.9252 52.191 51.2736C52.191 51.5866 52.2617 51.8744 52.4082 52.1319C52.5497 52.3793 52.7417 52.5863 52.9841 52.758L52.2617 53.7376C52.1708 53.8588 52.1607 54.0203 52.2264 54.1516C52.2971 54.2879 52.4284 54.3688 52.58 54.3688H52.7871C52.585 54.5051 52.4234 54.6666 52.3122 54.8585C52.1809 55.0756 52.1152 55.3028 52.1152 55.5351C52.1152 55.9693 52.3072 56.3278 52.6861 56.5955C53.0599 56.8631 53.5853 56.9994 54.2471 56.9994C54.7068 56.9994 55.1463 56.9237 55.5454 56.7772C55.9495 56.6308 56.2779 56.4137 56.5203 56.1309C56.7679 55.8482 56.8942 55.5048 56.8942 55.111C56.8942 54.697 56.7426 54.4041 56.389 54.1213C56.0859 53.884 55.611 53.7578 55.02 53.7578H52.9993C52.9943 53.7578 52.9892 53.7527 52.9892 53.7527C52.9892 53.7527 52.9841 53.7426 52.9892 53.7376L53.5146 53.0307C53.656 53.0963 53.7874 53.1367 53.9036 53.1619C54.0248 53.1872 54.1612 53.1973 54.3127 53.1973C54.7371 53.1973 55.1211 53.1115 55.4544 52.9398C55.7879 52.7681 56.0556 52.5359 56.2476 52.2379C56.4395 51.9451 56.5355 51.6169 56.5355 51.2685C56.5355 50.8948 56.3537 50.2132 55.8586 49.8648C55.8586 49.8598 55.8637 49.8598 55.8637 49.8598L56.9498 49.9809V49.4811H55.212C54.9392 49.3952 54.6563 49.3447 54.3633 49.3447ZM54.9695 52.5056C54.7775 52.6065 54.5704 52.6621 54.3633 52.6621C54.0248 52.6621 53.7267 52.5409 53.4741 52.3036C53.2216 52.0663 53.0953 51.7179 53.0953 51.2736C53.0953 50.8292 53.2216 50.4808 53.4741 50.2435C53.7267 50.0062 54.0248 49.885 54.3633 49.885C54.5755 49.885 54.7775 49.9355 54.9695 50.0415C55.1614 50.1425 55.3181 50.299 55.4444 50.5061C55.5656 50.7131 55.6312 50.9706 55.6312 51.2736C55.6312 51.5816 55.5706 51.839 55.4444 52.041C55.3231 52.2481 55.1614 52.4046 54.9695 52.5056ZM53.6004 54.3637H54.9695C55.3484 54.3637 55.5909 54.4394 55.7525 54.601C55.9142 54.7626 55.995 54.9797 55.995 55.2322C55.995 55.6008 55.8485 55.9037 55.5555 56.1309C55.2625 56.3582 54.8684 56.4743 54.3835 56.4743C53.9591 56.4743 53.6055 56.3784 53.3478 56.1966C53.0902 56.0148 52.9589 55.7371 52.9589 55.3837C52.9589 55.1615 53.0195 54.9544 53.1408 54.7727C53.262 54.5909 53.4085 54.4596 53.6004 54.3637Z" fill="#001E2B"/>
<path d="M76.5068 54.2973C76.4071 54.2428 76.332 54.1634 76.2721 54.0693C76.2172 53.9702 76.187 53.8661 76.187 53.7521C76.187 53.638 76.2172 53.529 76.2721 53.4348C76.327 53.3357 76.4071 53.2614 76.5068 53.2068C76.607 53.1523 76.7168 53.1226 76.8417 53.1226C76.9666 53.1226 77.0764 53.1523 77.1766 53.2068C77.2763 53.2614 77.3513 53.3407 77.4113 53.4348C77.4661 53.5339 77.4964 53.638 77.4964 53.7521C77.4964 53.8661 77.4661 53.9751 77.4113 54.0693C77.3564 54.1684 77.2763 54.2428 77.1766 54.2973C77.0764 54.3518 76.9666 54.3815 76.8417 54.3815C76.7218 54.3815 76.607 54.3568 76.5068 54.2973ZM77.1217 54.2279C77.2063 54.1833 77.2667 54.1139 77.3166 54.0346C77.3614 53.9503 77.3866 53.8561 77.3866 53.7521C77.3866 53.648 77.3614 53.5538 77.3166 53.4695C77.2713 53.3853 77.2063 53.3208 77.1217 53.2762C77.0366 53.2316 76.9464 53.2068 76.8417 53.2068C76.7369 53.2068 76.6468 53.2316 76.5617 53.2762C76.4771 53.3208 76.4166 53.3902 76.3668 53.4695C76.322 53.5538 76.2968 53.648 76.2968 53.7521C76.2968 53.8561 76.322 53.9503 76.3668 54.0346C76.4121 54.1188 76.4771 54.1833 76.5617 54.2279C76.6468 54.2725 76.7369 54.2973 76.8417 54.2973C76.9464 54.2973 77.0416 54.2725 77.1217 54.2279ZM76.5718 54.0544V54.0098L76.5818 54.0049H76.612C76.6216 54.0049 76.6317 53.9999 76.6367 53.9949C76.6468 53.985 76.6468 53.9801 76.6468 53.9702V53.5092C76.6468 53.4992 76.6418 53.4894 76.6367 53.4844C76.6267 53.4745 76.6216 53.4745 76.612 53.4745H76.5818L76.5718 53.4695V53.4249L76.5818 53.42H76.8417C76.9167 53.42 76.9716 53.4348 77.0164 53.4695C77.0618 53.5042 77.0814 53.5489 77.0814 53.6083C77.0814 53.6529 77.0668 53.6975 77.0315 53.7273C76.9968 53.762 76.9565 53.7818 76.9067 53.7868L76.9666 53.8066L77.0814 53.99C77.0915 54.0049 77.1015 54.0098 77.1166 54.0098H77.1464L77.1514 54.0148V54.0593L77.1464 54.0643H76.9918L76.9817 54.0593L76.8215 53.7917H76.7818V53.9702C76.7818 53.9801 76.7868 53.99 76.7918 53.9949C76.8019 54.0049 76.8069 54.0049 76.8165 54.0049H76.8467L76.8568 54.0098V54.0544L76.8467 54.0593H76.5818L76.5718 54.0544ZM76.8266 53.7273C76.8669 53.7273 76.9016 53.7174 76.9218 53.6926C76.9414 53.6727 76.9565 53.638 76.9565 53.5984C76.9565 53.5587 76.9464 53.529 76.9268 53.5042C76.9066 53.4795 76.8764 53.4695 76.8417 53.4695H76.8215C76.8115 53.4695 76.8019 53.4745 76.7969 53.4795C76.7868 53.4893 76.7868 53.4943 76.7868 53.5042V53.7273H76.8266Z" fill="#001E2B"/>
</svg>
