<svg width="100" height="100" viewBox="0 0 100 100" fill="none" xmlns="http://www.w3.org/2000/svg">
<g clip-path="url(#clip0_356_7906)">
<path d="M66.1808 38.9859L66.1545 38.9746C66.1394 38.969 66.1244 38.9633 66.1112 38.9502C66.0675 38.9033 66.0481 38.8388 66.0586 38.7756L67.5117 29.9012L74.3262 36.71L67.2391 39.722C67.2194 39.7299 67.1983 39.7337 67.1771 39.7332H67.1489C67.1395 39.7276 67.1301 39.7201 67.1113 39.7013C66.8476 39.408 66.5322 39.1655 66.1808 38.9859ZM76.065 38.4451L83.3513 45.7234C84.8646 47.2368 85.6222 47.9917 85.8985 48.8668C85.9398 48.9963 85.9737 49.1259 86 49.2592L68.587 41.8927C68.5776 41.8888 68.5682 41.8851 68.5588 41.8814C68.4892 41.8532 68.4084 41.8213 68.4084 41.75C68.4084 41.6786 68.4911 41.6448 68.5607 41.6166L68.5832 41.6073L76.065 38.4451ZM85.703 51.5952C85.327 52.3012 84.5939 53.0336 83.3532 54.2748L75.1382 62.4788L64.5134 60.2686L64.457 60.2574C64.363 60.2424 64.2633 60.2255 64.2633 60.141C64.1818 59.2559 63.7358 58.4445 63.032 57.9008C62.9888 57.8576 63.0001 57.79 63.0132 57.728C63.0132 57.7186 63.0132 57.7092 63.017 57.7017L65.0153 45.4473L65.0228 45.406C65.0341 45.3121 65.051 45.2032 65.1356 45.2032C66.0006 45.0957 66.7862 44.6458 67.3162 43.9545C67.3331 43.9357 67.3444 43.9151 67.367 43.9038C67.4271 43.8756 67.4986 43.9038 67.5606 43.9301L85.7011 51.5952H85.703ZM73.249 64.366L59.7404 77.8597L62.0526 63.6637L62.0564 63.6449C62.0583 63.6261 62.062 63.6073 62.0677 63.5904C62.0865 63.5454 62.1353 63.5266 62.1823 63.5078L62.2049 63.4984C62.7112 63.2827 63.1589 62.9499 63.5114 62.5276C63.5565 62.475 63.611 62.4243 63.6806 62.4149C63.6986 62.412 63.717 62.412 63.7351 62.4149L73.2471 64.3678L73.249 64.366ZM56.8812 80.7158L55.3585 82.2368L38.5245 57.9346C38.5184 57.9257 38.5121 57.9169 38.5057 57.9083C38.4794 57.8726 38.4512 57.8369 38.4568 57.7956C38.4587 57.7656 38.4775 57.7393 38.4982 57.7167L38.517 57.6923C38.5677 57.6172 38.611 57.5421 38.6579 57.4614L38.6955 57.3956L38.7012 57.39C38.7275 57.3449 38.7519 57.3018 38.7971 57.2773C38.8365 57.2586 38.891 57.2661 38.9343 57.2755L57.5842 61.1174C57.6364 61.1255 57.6856 61.1468 57.7271 61.1794C57.7515 61.2038 57.7572 61.2301 57.7628 61.2601C58.0265 62.2568 58.7414 63.073 59.6953 63.4665C59.7479 63.4928 59.7254 63.551 59.7009 63.613C59.6888 63.6401 59.6793 63.6684 59.6727 63.6975C59.4378 65.1246 57.4226 77.4015 56.8812 80.7158ZM53.7005 83.8911C52.5782 85.0009 51.9165 85.5886 51.1683 85.8252C50.4306 86.0583 49.6389 86.0583 48.9012 85.8252C48.0252 85.5473 47.2676 84.7925 45.7544 83.279L28.8489 66.3921L33.2647 59.5513C33.2853 59.5175 33.306 59.4875 33.3399 59.4631C33.3869 59.4293 33.4545 59.4443 33.5109 59.4631C34.5245 59.7685 35.6127 59.7134 36.5901 59.3072C36.6409 59.2884 36.6916 59.2753 36.7311 59.311C36.7508 59.329 36.7685 59.3491 36.7837 59.3711L53.7005 83.893V83.8911ZM27.2191 64.7641L23.341 60.8902L30.9995 57.6266C31.019 57.6181 31.0401 57.6136 31.0615 57.6135C31.1254 57.6135 31.163 57.6773 31.1968 57.7355C31.2738 57.8538 31.3553 57.9691 31.4412 58.081L31.4657 58.1111C31.4882 58.143 31.4732 58.1749 31.4506 58.205L27.221 64.7641H27.2191ZM21.6247 59.1758L16.7183 54.2748C15.8836 53.441 15.2783 52.8364 14.8572 52.3162L29.7757 55.4071C29.7944 55.4105 29.8132 55.4137 29.8321 55.4165C29.9242 55.4315 30.0257 55.4484 30.0257 55.5348C30.0257 55.6286 29.9148 55.6718 29.8208 55.7075L29.7776 55.7263L21.6247 59.1758ZM14 49.7963C14.017 49.4805 14.0738 49.1682 14.1692 48.8668C14.4474 47.9917 15.2031 47.2368 16.7183 45.7234L22.9969 39.4516C25.8878 43.6425 28.7866 47.8281 31.6931 52.0083C31.7439 52.0759 31.8003 52.151 31.742 52.2073C31.4675 52.5097 31.1931 52.8401 30.9995 53.1988C30.9784 53.2449 30.9461 53.285 30.9055 53.3152C30.881 53.3302 30.8547 53.3246 30.8265 53.319H30.8227L14 49.7944V49.7963ZM24.6775 37.7728L33.1199 29.3397C33.9132 29.6871 36.8007 30.9058 39.3836 31.9949C41.3386 32.8211 43.1207 33.5722 43.6809 33.8163C43.7373 33.8389 43.788 33.8614 43.8125 33.9177C43.8275 33.9515 43.82 33.9947 43.8125 34.0304C43.541 35.267 43.9105 36.557 44.7956 37.463C44.852 37.5193 44.7956 37.6001 44.7468 37.6696L44.7205 37.709L36.1484 50.9718C36.1258 51.0093 36.1051 51.0412 36.0675 51.0656C36.0224 51.0938 35.9585 51.0807 35.9059 51.0675C35.5725 50.9803 35.2297 50.9336 34.8851 50.9286C34.5768 50.9286 34.2422 50.9849 33.9038 51.0469H33.9019C33.8643 51.0525 33.8305 51.06 33.8004 51.0375C33.7672 51.0104 33.7386 50.978 33.7158 50.9417L24.6775 37.7728ZM34.8249 27.6366L45.7544 16.7192C47.2676 15.2075 48.0252 14.4508 48.9012 14.1748C49.6389 13.9417 50.4306 13.9417 51.1683 14.1748C52.0443 14.4508 52.8019 15.2075 54.3152 16.7192L56.6838 19.0852L48.9106 31.1105C48.8914 31.1455 48.8652 31.1762 48.8336 31.2006C48.7866 31.2325 48.7208 31.2194 48.6644 31.2006C47.4202 30.8234 46.0698 31.0834 45.0551 31.8954C45.0043 31.948 44.9291 31.9179 44.8652 31.8897C43.8501 31.4485 35.9547 28.1154 34.8249 27.6366ZM58.3343 20.7338L65.5116 27.9032L63.7821 38.6028V38.631C63.7806 38.6554 63.7755 38.6794 63.7671 38.7023C63.7483 38.7399 63.7107 38.7474 63.6731 38.7587C63.3033 38.8705 62.955 39.0438 62.6429 39.2713C62.6295 39.2809 62.6169 39.2915 62.6053 39.3032C62.5846 39.3258 62.564 39.3464 62.5301 39.3502C62.5026 39.351 62.4751 39.3466 62.4493 39.337L51.5123 34.6951L51.4917 34.6858C51.4221 34.6576 51.3394 34.6238 51.3394 34.5524C51.2751 33.9436 51.076 33.3567 50.7566 32.8343C50.704 32.7479 50.6457 32.6578 50.6908 32.5695L58.3343 20.7338ZM50.9427 36.894L61.1954 41.2317C61.2518 41.258 61.3139 41.2824 61.3383 41.3406C61.3481 41.3756 61.3481 41.4126 61.3383 41.4476C61.3082 41.5979 61.2819 41.7687 61.2819 41.9415V42.2288C61.2819 42.3002 61.2086 42.3302 61.1409 42.3584L61.1202 42.3659C59.496 43.0588 38.3177 52.0796 38.2857 52.0796C38.2538 52.0796 38.2199 52.0796 38.188 52.0477C38.1316 51.9914 38.188 51.9125 38.2387 51.8412C38.2477 51.8288 38.2565 51.8163 38.2651 51.8036L46.6905 38.7718L46.7056 38.7493C46.7544 38.6704 46.8108 38.5822 46.9011 38.5822L46.9857 38.5953C47.1774 38.6216 47.3466 38.646 47.5177 38.646C48.796 38.646 49.9803 38.0245 50.6946 36.9616C50.7116 36.9332 50.7332 36.9079 50.7585 36.8865C50.8093 36.849 50.8845 36.8677 50.9427 36.894ZM39.2012 54.1414L62.2857 44.3075C62.2857 44.3075 62.3196 44.3075 62.3515 44.3394C62.4775 44.4652 62.5846 44.5497 62.688 44.6286L62.7388 44.6605C62.7858 44.6868 62.8328 44.7169 62.8365 44.7657C62.8365 44.7845 62.8365 44.7957 62.8328 44.8126L60.8552 56.9468L60.8477 56.9957C60.8345 57.0896 60.8213 57.1966 60.733 57.1966C59.6626 57.2688 58.6968 57.8639 58.152 58.7871L58.1426 58.8021C58.1162 58.8453 58.0918 58.8866 58.0486 58.9091C58.0091 58.9279 57.9583 58.9204 57.917 58.911L39.5076 55.1179C39.4888 55.1141 39.2219 54.1433 39.2012 54.1414Z" fill="url(#paint0_linear_356_7906)"/>
</g>
<defs>
<linearGradient id="paint0_linear_356_7906" x1="-3585.99" y1="-3586" x2="10814" y2="-3586" gradientUnits="userSpaceOnUse">
<stop stop-color="#5492C0"/>
<stop offset="1"/>
</linearGradient>
<clipPath id="clip0_356_7906">
<rect width="72" height="72" fill="white" transform="translate(14 14)"/>
</clipPath>
</defs>
</svg>
