<svg width="100" height="100" viewBox="0 0 100 100" fill="none" xmlns="http://www.w3.org/2000/svg">
<rect x="17" y="17" width="66" height="66" rx="7" fill="white"/>
<path d="M36.1895 42.0895H45.933V42.8602H37.0826V48.6608H45.4053V49.4315H37.0826V55.8001H46.0345V56.5708H36.1895V42.0895ZM46.8059 42.0895H47.8411L52.4287 48.458L57.1178 42.0895L63.4958 34L53.0174 49.1273L58.417 56.5708H57.3411L52.4287 49.7966L47.4961 56.5708H46.4405L51.8807 49.1273L46.8059 42.0895ZM58.8027 42.8602V42.0895H69.9063V42.8602H64.7909V56.5708H63.8977V42.8602H58.8027Z" fill="#1E1E1E"/>
<path d="M24 42.0894H25.1165L40.5117 65.0162L34.1496 56.5706L24.9338 43.1846L24.8932 56.5706H24V42.0894Z" fill="#1E1E1E"/>
<path d="M69.8164 55.5674C70.0011 55.5674 70.1357 55.4267 70.1357 55.2448C70.1357 55.063 70.0011 54.9223 69.8164 54.9223C69.6339 54.9223 69.4971 55.063 69.4971 55.2448C69.4971 55.4267 69.6339 55.5674 69.8164 55.5674ZM70.694 54.7188C70.694 55.2556 71.0829 55.6063 71.6499 55.6063C72.2538 55.6063 72.6188 55.2448 72.6188 54.617V52.4068H72.1322V54.6149C72.1322 54.9634 71.9562 55.1496 71.6455 55.1496C71.3675 55.1496 71.1785 54.9764 71.172 54.7188H70.694ZM73.2553 54.6906C73.29 55.2491 73.7571 55.6063 74.4523 55.6063C75.1952 55.6063 75.6601 55.2318 75.6601 54.6344C75.6601 54.1646 75.3951 53.9048 74.752 53.7555L74.4066 53.671C73.9982 53.5758 73.8331 53.4481 73.8331 53.2251C73.8331 52.9437 74.0895 52.7597 74.474 52.7597C74.8389 52.7597 75.0909 52.9394 75.1365 53.2273H75.6101C75.5819 52.7012 75.117 52.3311 74.4805 52.3311C73.7962 52.3311 73.34 52.7012 73.34 53.2576C73.34 53.7165 73.5985 53.9893 74.1655 54.1213L74.5696 54.2187C74.9845 54.3161 75.167 54.459 75.167 54.6971C75.167 54.9742 74.8802 55.1755 74.4892 55.1755C74.0699 55.1755 73.7788 54.9872 73.7375 54.6906H73.2553Z" fill="#1E1E1E"/>
</svg>
