<svg width="100" height="100" viewBox="0 0 100 100" fill="none" xmlns="http://www.w3.org/2000/svg">
<path d="M50.3289 86.8571C49.3249 86.8571 48.3878 86.5894 47.5177 86.1209L38.6155 80.8331C37.2769 80.0968 37.9462 79.8291 38.3478 79.6952C40.155 79.0928 40.4897 78.959 42.3638 77.888C42.5646 77.7542 42.8323 77.8211 43.0331 77.955L49.8604 82.0379C50.1281 82.1718 50.4628 82.1718 50.6636 82.0379L77.37 66.5763C77.6378 66.4424 77.7716 66.1747 77.7716 65.84V34.9837C77.7716 34.649 77.6378 34.3813 77.37 34.2474L50.6636 18.8527C50.3958 18.7188 50.0612 18.7188 49.8604 18.8527L23.1539 34.2474C22.8861 34.3813 22.7523 34.7159 22.7523 34.9837V65.84C22.7523 66.1077 22.8861 66.4424 23.1539 66.5763L30.4496 70.7931C34.3987 72.8011 36.8753 70.4584 36.8753 68.1157V37.661C36.8753 37.2594 37.2099 36.8578 37.6785 36.8578H41.0921C41.4937 36.8578 41.8953 37.1925 41.8953 37.661V68.1157C41.8953 73.4035 39.0171 76.4824 33.9971 76.4824C32.4576 76.4824 31.2528 76.4824 27.8392 74.8091L20.8112 70.7931C19.0709 69.7891 18 67.9149 18 65.9069V35.0506C18 33.0426 19.0709 31.1684 20.8112 30.1644L47.5177 14.7028C49.191 13.7657 51.4668 13.7657 53.1401 14.7028L79.8466 30.1644C81.5868 31.1684 82.6578 33.0426 82.6578 35.0506V65.9069C82.6578 67.9149 81.5868 69.7891 79.8466 70.7931L53.1401 86.2547C52.27 86.6563 51.266 86.8571 50.3289 86.8571ZM58.5617 65.6392C46.8483 65.6392 44.4387 60.2845 44.4387 55.733C44.4387 55.3314 44.7734 54.9298 45.2419 54.9298H48.7225C49.1241 54.9298 49.4588 55.1976 49.4588 55.5992C49.9942 59.1467 51.5337 60.8869 58.6286 60.8869C64.2511 60.8869 66.6607 59.6152 66.6607 56.6032C66.6607 54.8629 65.9913 53.5912 57.223 52.721C49.9273 51.9848 45.3758 50.3784 45.3758 44.5551C45.3758 39.1335 49.9273 35.9207 57.5577 35.9207C66.1252 35.9207 70.342 38.8658 70.8775 45.2914C70.8775 45.4922 70.8105 45.693 70.6767 45.8938C70.5428 46.0277 70.342 46.1616 70.1412 46.1616H66.6607C66.326 46.1616 65.9913 45.8938 65.9244 45.5592C65.1212 41.8778 63.0463 40.673 57.5577 40.673C51.3998 40.673 50.6636 42.8149 50.6636 44.4213C50.6636 46.3624 51.5337 46.9648 59.8334 48.0357C68.0663 49.1066 71.9484 50.6461 71.9484 56.4024C71.8815 62.2925 67.0623 65.6392 58.5617 65.6392Z" fill="#539E43"/>
</svg>
