<svg width="100" height="100" viewBox="0 0 100 100" fill="none" xmlns="http://www.w3.org/2000/svg">
<g clip-path="url(#clip0_356_8011)">
<path d="M58.6899 59.5072L57.2596 61.9911C57.0479 62.3587 56.743 62.664 56.3757 62.8763C56.0084 63.0886 55.5917 63.2003 55.1675 63.2003H44.2092C43.785 63.2003 43.3682 63.0886 43.001 62.8763C42.6337 62.664 42.3288 62.3587 42.117 61.9911L40.6864 59.5072H58.6899ZM62.6945 52.5537L60.1724 56.9332H39.2043L36.6822 52.5537H62.6945ZM60.265 45.7541L62.6986 49.9798H36.6781L39.1117 45.7541H60.265ZM55.1672 39.3262C55.5915 39.3261 56.0083 39.4378 56.3756 39.6501C56.7429 39.8624 57.0479 40.1677 57.2596 40.5354L58.7826 43.1801H40.5941L42.1173 40.5354C42.3291 40.1678 42.634 39.8625 43.0012 39.6502C43.3685 39.4379 43.7853 39.3262 44.2095 39.3262H55.1672Z" fill="#00435B"/>
<path d="M28.2613 38.1735C27.0474 32.2874 26.7867 27.7728 27.5715 24.4947C28.0382 22.545 28.8911 20.9545 30.1886 19.8067C31.5583 18.5952 33.2898 18.0007 35.2357 18.0007C38.4453 18.0007 41.8198 19.4645 45.4255 22.245C46.8966 23.3793 48.423 24.7464 50.0083 26.3471C50.1348 26.1848 50.2772 26.0316 50.4363 25.8898C54.9183 21.896 58.6918 19.4141 61.9195 18.4574C63.8386 17.8882 65.6403 17.834 67.2809 18.3863C69.013 18.9689 70.3929 20.1741 71.3668 21.8616C72.9736 24.6468 73.3971 28.3064 72.7982 32.8254C72.5541 34.6673 72.1367 36.6736 71.5468 38.8476C71.7693 38.8744 71.9925 38.9239 72.2133 38.997C77.8998 40.8817 81.9268 42.908 84.3648 45.2242C85.8155 46.6021 86.7625 48.1361 87.1051 49.8344C87.4663 51.6268 87.1138 53.4244 86.1414 55.1108C84.5375 57.8922 81.5883 60.0854 77.3871 61.8227C75.7005 62.5204 73.7916 63.1522 71.6589 63.7206C71.7562 63.9402 71.832 64.1736 71.8824 64.4183C73.0962 70.3043 73.3567 74.819 72.5722 78.097C72.1055 80.0467 71.2523 81.6373 69.9548 82.785C68.5854 83.9965 66.8536 84.5911 64.908 84.5911C61.6981 84.5911 58.3239 83.1273 54.7181 80.3468C53.2313 79.2002 51.688 77.8162 50.0844 76.1934C49.9155 76.4572 49.7113 76.6965 49.4773 76.9047C44.9953 80.8991 41.2217 83.3804 37.9941 84.3374C36.0749 84.9066 34.2732 84.9607 32.6326 84.4084C30.9005 83.8258 29.5206 82.6207 28.5468 80.9332C26.9399 78.148 26.5164 74.4884 27.1153 69.9693C27.3684 68.061 27.8074 65.9759 28.4314 63.7107C28.1827 63.6854 27.9375 63.633 27.7002 63.5542C22.0137 61.6695 17.9867 59.6432 15.5488 57.327C14.0981 55.9492 13.151 54.4152 12.8085 52.7169C12.4473 50.9245 12.7997 49.1265 13.7721 47.4402C15.376 44.6591 18.3252 42.4656 22.5264 40.7285C24.2634 40.0099 26.2359 39.3614 28.4457 38.78C28.3657 38.5839 28.304 38.3809 28.2613 38.1735Z" fill="#002B3B"/>
<path d="M67.9147 64.9971C68.1861 64.949 68.4656 65.0071 68.6953 65.1595C68.925 65.3119 69.0872 65.5469 69.1484 65.8156L69.1551 65.8482L69.2154 66.1614C71.1701 76.4375 69.7931 81.5758 65.0847 81.5758C60.4783 81.5758 54.6141 77.1913 47.4923 68.4225C47.3657 68.2666 47.2855 68.0784 47.2606 67.8792C47.2357 67.68 47.2671 67.4779 47.3514 67.2957C47.4356 67.1135 47.5693 66.9585 47.7372 66.8485C47.9051 66.7385 48.1005 66.6778 48.3012 66.6732H48.3344L48.7096 66.6758C51.7066 66.6922 54.6199 66.5876 57.4499 66.3624C60.7903 66.0964 64.2787 65.6414 67.9147 64.9971ZM35.5797 57.2291L35.5977 57.2597L35.7859 57.588C37.294 60.2098 38.865 62.6981 40.4992 65.0533C42.4241 67.8265 44.5885 70.6341 46.9924 73.4761C47.1708 73.687 47.261 73.9586 47.2443 74.2343C47.2275 74.5101 47.105 74.7687 46.9024 74.9565L46.8753 74.9806L46.6335 75.1889C38.6788 82.0046 33.5088 83.3652 31.1233 79.2707C28.7879 75.2632 29.6347 67.9759 33.6632 57.4092C33.7345 57.2219 33.8568 57.0584 34.0163 56.9372C34.1757 56.8159 34.3659 56.7417 34.5654 56.7229C34.7649 56.7042 34.9656 56.7417 35.1448 56.8312C35.3241 56.9206 35.4747 57.0585 35.5797 57.2291ZM71.951 42.0656L71.9837 42.0764L72.2831 42.1795C82.1015 45.595 85.8317 49.3485 83.4739 53.4398C81.1679 57.4412 74.4638 60.3548 63.3619 62.1801C63.1607 62.2133 62.9542 62.1884 62.7667 62.1083C62.5791 62.0283 62.4182 61.8965 62.3029 61.7284C62.1876 61.5602 62.1225 61.3626 62.1154 61.1588C62.1083 60.9551 62.1595 60.7535 62.2628 60.5777C63.8528 57.8726 65.2851 55.1816 66.5593 52.5036C68.0042 49.4667 69.3602 46.2068 70.6274 42.7245C70.7194 42.4714 70.9033 42.2621 71.1424 42.1383C71.3816 42.0144 71.6586 41.9851 71.9184 42.056L71.951 42.0656ZM37.2692 40.346C37.3907 40.4174 37.497 40.512 37.5819 40.6244C37.6669 40.7369 37.7289 40.8649 37.7643 41.0013C37.7997 41.1377 37.8079 41.2798 37.7885 41.4193C37.769 41.5589 37.7222 41.6933 37.6508 41.8148C36.0603 44.5195 34.6283 47.2109 33.3541 49.8888C31.9092 52.9257 30.5532 56.1854 29.286 59.6679C29.1919 59.9265 29.0021 60.1391 28.7558 60.2617C28.5094 60.3844 28.2254 60.4077 27.9623 60.3269L27.9297 60.3161L27.6303 60.2127C17.8118 56.7974 14.0817 53.0437 16.4395 48.9526C18.7455 44.9509 25.4496 42.0376 36.5514 40.2123C36.7991 40.1715 37.0531 40.2187 37.2692 40.346ZM68.7901 23.5238C71.1255 27.5315 70.2787 34.8188 66.2502 45.3856C66.1789 45.5728 66.0566 45.7363 65.8971 45.8576C65.7377 45.9788 65.5474 46.053 65.348 46.0718C65.1485 46.0905 64.9478 46.053 64.7685 45.9636C64.5893 45.8741 64.4387 45.7362 64.3337 45.5656L64.3157 45.535L64.1275 45.2067C62.6194 42.585 61.0484 40.0966 59.4142 37.7415C57.4892 34.9682 55.3248 32.1606 52.921 29.3187C52.7426 29.1078 52.6524 28.8362 52.6691 28.5604C52.6859 28.2847 52.8084 28.026 53.011 27.8383L53.0381 27.8141L53.2799 27.6058C61.2345 20.7902 66.4046 19.4295 68.7901 23.5238ZM35.2313 21.085C39.8379 21.085 45.7022 25.4691 52.8237 34.2379C52.9502 34.3938 53.0305 34.582 53.0554 34.7812C53.0803 34.9804 53.0488 35.1826 52.9646 35.3648C52.8803 35.547 52.7467 35.7019 52.5787 35.8119C52.4108 35.922 52.2154 35.9827 52.0148 35.9872H51.9815L51.6063 35.9849C48.6097 35.9686 45.6961 36.0732 42.8663 36.2983C39.5257 36.5643 36.0373 37.0193 32.4012 37.6637C32.1299 37.7117 31.8504 37.6535 31.6208 37.5011C31.3912 37.3487 31.229 37.1138 31.1679 36.8451L31.1609 36.8122L31.1006 36.4993C29.1459 26.223 30.5226 21.085 35.2313 21.085Z" fill="#FF4154"/>
<path d="M45.0904 39.4604H54.2886C54.9495 39.4604 55.5986 39.6348 56.1705 39.966C56.7424 40.2972 57.2168 40.7734 57.5457 41.3466L62.1643 49.3942C62.4908 49.9631 62.6626 50.6076 62.6626 51.2635C62.6626 51.9194 62.4908 52.5639 62.1643 53.1328L57.5457 61.1804C57.2167 61.7536 56.7424 62.2298 56.1705 62.561C55.5986 62.8922 54.9495 63.0666 54.2886 63.0666H45.0904C43.7451 63.0666 42.5027 62.3471 41.833 61.1804L37.215 53.1328C36.8885 52.5639 36.7167 51.9194 36.7167 51.2635C36.7167 50.6076 36.8885 49.9631 37.215 49.3942L41.8333 41.3466C42.1623 40.7734 42.6367 40.2972 43.2086 39.966C43.7806 39.6348 44.4295 39.4604 45.0904 39.4604ZM52.8868 41.8893C54.2327 41.8893 55.476 42.6097 56.1451 43.7773L59.3657 49.396C59.6916 49.9644 59.863 50.6083 59.863 51.2635C59.863 51.9188 59.6916 52.5626 59.3657 53.1311L56.1451 58.7497C55.8162 59.3234 55.3418 59.8 54.7696 60.1314C54.1975 60.4629 53.548 60.6374 52.8868 60.6374H46.4927C45.1469 60.6374 43.9036 59.9173 43.2345 58.7497L40.0138 53.1311C39.688 52.5626 39.5165 51.9188 39.5165 51.2635C39.5165 50.6083 39.688 49.9644 40.0138 49.396L43.2345 43.7773C43.5633 43.2037 44.0377 42.7271 44.6098 42.3957C45.1819 42.0642 45.8313 41.8897 46.4924 41.8896L52.8868 41.8893ZM51.3758 44.546H48.0037C47.3431 44.546 46.6942 44.7203 46.1224 45.0512C45.5507 45.3821 45.0763 45.858 44.7472 46.4308L43.0454 49.3925C42.7183 49.9618 42.5461 50.6069 42.5461 51.2635C42.5461 51.9201 42.7183 52.5653 43.0454 53.1346L44.7472 56.0965C45.0763 56.6694 45.5507 57.1452 46.1224 57.4762C46.6942 57.8071 47.3431 57.9813 48.0037 57.9813H51.3758C52.7205 57.9813 53.9626 57.2623 54.6323 56.0965L56.3341 53.1346C56.6613 52.5653 56.8334 51.9201 56.8334 51.2635C56.8334 50.6069 56.6613 49.9618 56.3341 49.3925L54.6323 46.4305C54.3033 45.8577 53.8289 45.3818 53.2572 45.0509C52.6854 44.72 52.0365 44.546 51.3758 44.546ZM49.9211 47.0885C51.2646 47.0885 52.5058 47.8063 53.1758 48.9704L53.4173 49.3898C53.7453 49.9597 53.9179 50.6057 53.9179 51.2632C53.9179 51.9207 53.7453 52.5667 53.4173 53.1366L53.1758 53.5561C52.8465 54.1281 52.3723 54.6032 51.8009 54.9336C51.2295 55.264 50.5811 55.4379 49.9211 55.4379H49.4585C48.7985 55.4379 48.1501 55.264 47.5787 54.9336C47.0073 54.6032 46.533 54.1281 46.2037 53.5561L45.9622 53.1366C45.6343 52.5667 45.4616 51.9207 45.4616 51.2632C45.4616 50.6057 45.6343 49.9597 45.9622 49.3898L46.2037 48.9704C46.533 48.3984 47.0073 47.9232 47.5787 47.5929C48.1501 47.2625 48.7985 47.0885 49.4585 47.0885H49.9211ZM49.6904 49.5935C49.397 49.5933 49.1088 49.6704 48.8546 49.817C48.6005 49.9635 48.3894 50.1744 48.2426 50.4283C48.0959 50.6822 48.0187 50.9701 48.0187 51.2632C48.0187 51.5563 48.0959 51.8443 48.2426 52.0981C48.3893 52.3521 48.6003 52.563 48.8544 52.7096C49.1084 52.8563 49.3966 52.9335 49.6899 52.9335C49.9833 52.9335 50.2714 52.8563 50.5255 52.7096C50.7795 52.563 50.9905 52.3521 51.1373 52.0981C51.2839 51.8443 51.3611 51.5563 51.3611 51.2632C51.3611 50.9701 51.2839 50.6822 51.1373 50.4283C50.9906 50.1745 50.7796 49.9637 50.5256 49.8171C50.2717 49.6706 49.9836 49.5934 49.6904 49.5935ZM36.1421 51.2632H39.1484Z" fill="#FFD94C"/>
</g>
<defs>
<clipPath id="clip0_356_8011">
<rect width="74.5741" height="67" fill="white" transform="translate(12.6696 18)"/>
</clipPath>
</defs>
</svg>
