<svg width="100" height="100" viewBox="0 0 100 100" fill="none" xmlns="http://www.w3.org/2000/svg">
<path d="M49.6874 57.0998C53.6693 57.0998 56.8973 53.8718 56.8973 49.8899C56.8973 45.908 53.6693 42.6801 49.6874 42.6801C45.7055 42.6801 42.4775 45.908 42.4775 49.8899C42.4775 53.8718 45.7055 57.0998 49.6874 57.0998Z" fill="#61DAFB"/>
<path d="M49.6872 64.6613C71.0535 64.6613 88.3744 58.0479 88.3744 49.8898C88.3744 41.7318 71.0535 35.1183 49.6872 35.1183C28.3208 35.1183 11 41.7318 11 49.8898C11 58.0479 28.3208 64.6613 49.6872 64.6613Z" stroke="#61DAFB" stroke-width="3.51702"/>
<path d="M36.8949 57.2756C47.5781 75.7793 61.9659 87.4729 69.0309 83.3939C76.096 79.3149 73.163 61.0079 62.4798 42.5041C51.7967 24.0003 37.4088 12.3067 30.3438 16.3857C23.2787 20.4648 26.2117 38.7718 36.8949 57.2756Z" stroke="#61DAFB" stroke-width="3.51702"/>
<path d="M36.895 42.5042C26.2118 61.008 23.2788 79.3149 30.3438 83.394C37.4089 87.473 51.7967 75.7794 62.4799 57.2756C73.1631 38.7718 76.0961 20.4648 69.031 16.3858C61.9659 12.3068 47.5781 24.0004 36.895 42.5042Z" stroke="#61DAFB" stroke-width="3.51702"/>
</svg>

