<svg width="100" height="100" viewBox="0 0 100 100" fill="none" xmlns="http://www.w3.org/2000/svg">
<path d="M76.2454 37.5852C75.397 37.2932 74.5178 37.0169 73.6126 36.7556C73.7614 36.1484 73.8979 35.549 74.0193 34.9599C76.0123 25.2856 74.7093 17.492 70.2596 14.926C65.9929 12.4656 59.0152 15.031 51.9679 21.164C51.2902 21.7537 50.6107 22.3781 49.9314 23.0325C49.4788 22.5995 49.0269 22.1811 48.5762 21.7809C41.1905 15.2231 33.7875 12.4596 29.3422 15.033C25.0796 17.5006 23.8173 24.8273 25.6113 33.9957C25.7845 34.8812 25.987 35.7856 26.216 36.7051C25.1683 37.0025 24.1568 37.3196 23.1889 37.6569C14.53 40.6758 9 45.4071 9 50.3147C9 55.3834 14.9365 60.4673 23.9554 63.55C24.6672 63.7933 25.4057 64.0233 26.1668 64.2417C25.9197 65.2361 25.7049 66.2106 25.5245 67.1611C23.8139 76.1703 25.1498 83.324 29.401 85.776C33.7921 88.3082 41.1617 85.7054 48.3377 79.4326C48.9049 78.9368 49.4741 78.411 50.0444 77.8598C50.7835 78.5715 51.5214 79.2451 52.2554 79.8769C59.2063 85.8584 66.0714 88.2737 70.3187 85.8149C74.7055 83.2754 76.1311 75.5906 74.2802 66.2409C74.1389 65.5268 73.9744 64.7973 73.7896 64.0549C74.3072 63.9019 74.8152 63.7439 75.3106 63.5797C84.6867 60.4732 90.7871 55.4511 90.7871 50.3147C90.7871 45.3893 85.0788 40.6261 76.2454 37.5852ZM74.2118 60.2632C73.7646 60.4113 73.3057 60.5544 72.8381 60.6931C71.803 57.4163 70.4061 53.9318 68.6965 50.3318C70.3279 46.8175 71.6709 43.3776 72.677 40.122C73.5136 40.3641 74.3256 40.6194 75.1081 40.8889C82.6766 43.4943 87.2932 47.3465 87.2932 50.3147C87.2932 53.4765 82.3074 57.5808 74.2118 60.2632ZM70.8527 66.9195C71.6711 71.0538 71.788 74.7917 71.2459 77.7138C70.7588 80.3394 69.7792 82.09 68.568 82.7912C65.9905 84.2831 60.4785 82.3438 54.5341 77.2284C53.8526 76.642 53.1662 76.0159 52.4776 75.3532C54.7821 72.8328 57.0853 69.9027 59.3332 66.6485C63.2871 66.2977 67.0225 65.7241 70.41 64.941C70.5768 65.614 70.725 66.2741 70.8527 66.9195ZM36.8831 82.5333C34.3648 83.4227 32.3592 83.4482 31.1468 82.7491C28.567 81.2611 27.4945 75.5174 28.9574 67.8127C29.125 66.9304 29.3244 66.024 29.5543 65.0975C32.9047 65.8384 36.6127 66.3715 40.576 66.6928C42.839 69.8771 45.2088 72.8039 47.5969 75.3667C47.0751 75.8704 46.5554 76.35 46.0386 76.8019C42.8654 79.5756 39.6855 81.5435 36.8831 82.5333ZM25.0854 60.2439C21.0974 58.8808 17.8039 57.1093 15.5464 55.1761C13.5179 53.4389 12.4938 51.7142 12.4938 50.3147C12.4938 47.3366 16.9338 43.538 24.339 40.9561C25.2375 40.6429 26.1781 40.3476 27.1543 40.0703C28.1777 43.3994 29.5202 46.8801 31.1404 50.3998C29.4993 53.9717 28.1376 57.5079 27.1042 60.876C26.4083 60.676 25.7341 60.4655 25.0854 60.2439ZM29.0401 33.3247C27.5031 25.4695 28.5239 19.5438 31.0926 18.0569C33.8288 16.4728 39.8793 18.7313 46.2562 24.3937C46.6639 24.7556 47.0731 25.1344 47.4835 25.5263C45.1072 28.0779 42.7591 30.9828 40.5162 34.1482C36.6697 34.5048 32.9876 35.0775 29.6023 35.8444C29.3895 34.9882 29.201 34.1471 29.0401 33.3247ZM64.3194 42.0361C63.5101 40.6382 62.6793 39.2734 61.8323 37.9458C64.4418 38.2757 66.942 38.7136 69.2899 39.2495C68.585 41.5086 67.7064 43.8707 66.6722 46.2921C65.9303 44.8836 65.1457 43.4635 64.3194 42.0361ZM49.9326 28.0233C51.5441 29.7692 53.158 31.7185 54.7454 33.8335C53.1458 33.7579 51.5264 33.7186 49.8936 33.7186C48.2762 33.7186 46.6687 33.7571 45.0789 33.8313C46.6679 31.736 48.2958 29.7893 49.9326 28.0233ZM35.4536 42.0602C34.6452 43.462 33.8751 44.8744 33.1449 46.2895C32.1274 43.8765 31.257 41.5037 30.546 39.2125C32.8795 38.6903 35.3679 38.2634 37.9608 37.9397C37.1019 39.2795 36.2642 40.6546 35.4536 42.0602ZM38.0355 62.939C35.3565 62.6401 32.8307 62.2351 30.4978 61.7273C31.2202 59.3953 32.1098 56.9718 33.1488 54.5069C33.8809 55.9209 34.6541 57.3339 35.4675 58.7387C36.2959 60.1699 37.1544 61.5719 38.0355 62.939ZM50.0292 72.8526C48.3733 71.0659 46.7215 69.0895 45.1083 66.9636C46.6743 67.025 48.2709 67.0564 49.8936 67.0564C51.5606 67.0564 53.2085 67.0189 54.8306 66.9467C53.238 69.1109 51.6299 71.0903 50.0292 72.8526ZM66.7056 54.3812C67.7987 56.8728 68.7202 59.2836 69.4519 61.5759C67.0806 62.1169 64.5203 62.5526 61.8227 62.8764C62.6717 61.531 63.5098 60.1427 64.3333 58.7147C65.1665 57.27 65.9576 55.8231 66.7056 54.3812ZM61.3069 56.9692C60.0284 59.186 58.7158 61.3021 57.3833 63.2996C54.9564 63.4731 52.4491 63.5625 49.8936 63.5625C47.3484 63.5625 44.8726 63.4835 42.4886 63.3287C41.1024 61.305 39.7613 59.1826 38.491 56.9883C37.224 54.7999 36.0582 52.5931 35.0016 50.3986C36.0579 48.199 37.221 45.9897 38.4807 43.8053L38.4804 43.8057C39.7434 41.6155 41.0727 39.5034 42.4461 37.4924C44.8785 37.3085 47.3727 37.2126 49.8934 37.2126C52.4255 37.2126 54.923 37.3092 57.3547 37.4947C58.7071 39.491 60.0274 41.5963 61.2954 43.7868C62.5778 46.0019 63.7558 48.1966 64.8212 50.349C63.759 52.5383 62.5836 54.7551 61.3069 56.9692ZM68.5144 17.9529C71.2532 19.5323 72.3182 25.902 70.5975 34.2547C70.4877 34.7876 70.3641 35.3305 70.2299 35.8806C66.8367 35.0977 63.1521 34.5151 59.2944 34.1532C57.0471 30.9529 54.7182 28.0435 52.3806 25.5247C53.0091 24.9201 53.6367 24.3436 54.2617 23.7995C60.2998 18.5448 65.9432 16.4702 68.5144 17.9529ZM49.8936 43.0114C53.927 43.0114 57.1969 46.2812 57.1969 50.3147C57.1969 54.3482 53.927 57.6181 49.8936 57.6181C45.8601 57.6181 42.5902 54.3482 42.5902 50.3147C42.5902 46.2812 45.8601 43.0114 49.8936 43.0114Z" fill="#00D8FF"/>
</svg>
