<svg width="100" height="100" viewBox="0 0 100 100" fill="none" xmlns="http://www.w3.org/2000/svg">
<path d="M78.2613 54.6753C75.5361 54.6896 73.1677 55.3459 71.1845 56.3161C70.4569 54.8751 69.7292 53.591 69.6008 52.6493C69.4581 51.5507 69.2869 50.8801 69.4581 49.5675C69.6294 48.2549 70.3998 46.3858 70.3855 46.2432C70.3713 46.1005 70.2143 45.4299 68.6449 45.4156C67.0755 45.4014 65.72 45.7153 65.5631 46.129C65.4061 46.5428 65.1065 47.4845 64.9068 48.4546C64.6357 49.8814 61.7679 54.9749 60.1271 57.643C59.5992 56.6015 59.1427 55.6883 59.0428 54.9607C58.9001 53.8621 58.7289 53.1915 58.9001 51.8789C59.0713 50.5663 59.8418 48.6972 59.8275 48.5545C59.8132 48.4118 59.6563 47.7413 58.0869 47.727C56.5174 47.7127 55.162 48.0266 55.0051 48.4404C54.8481 48.8541 54.6769 49.8243 54.3487 50.766C54.0206 51.7077 50.2111 60.2112 49.2124 62.4084C48.6988 63.5355 48.2565 64.4344 47.9426 65.0479C47.9426 65.0479 47.9283 65.0907 47.8855 65.162C47.6144 65.6899 47.4575 65.9753 47.4575 65.9753C47.4575 65.9753 47.4575 65.9753 47.4575 65.9895C47.2435 66.3748 47.0152 66.7315 46.9011 66.7315C46.8154 66.7315 46.6585 65.7042 46.9296 64.306C47.5003 61.3526 48.8557 56.7584 48.8414 56.6015C48.8414 56.5158 49.0983 55.7169 47.9569 55.3031C46.844 54.8893 46.4445 55.5742 46.3446 55.5742C46.2447 55.5742 46.1734 55.8167 46.1734 55.8167C46.1734 55.8167 47.4147 50.6519 43.805 50.6519C41.5507 50.6519 38.4404 53.1202 36.8995 55.3459C35.9293 55.8738 33.8605 57.0009 31.649 58.2137C30.8072 58.6845 29.9369 59.1554 29.1236 59.5977C29.0665 59.5406 29.0095 59.4692 28.9524 59.4122C24.5865 54.7467 16.511 51.4508 16.8535 45.1874C16.9819 42.9045 17.7666 36.9121 32.3624 29.6357C44.3757 23.7146 53.935 25.3554 55.59 28.9936C57.9584 34.187 50.468 43.8319 38.0551 45.2302C33.3183 45.7581 30.8357 43.9318 30.2079 43.247C29.5516 42.5336 29.4518 42.4908 29.2092 42.6335C28.8097 42.8475 29.0665 43.4895 29.2092 43.8605C29.5802 44.8307 31.1068 46.5428 33.6892 47.3846C35.9721 48.1265 41.5222 48.5403 48.2422 45.9435C55.7612 43.033 61.6395 34.9432 59.9131 28.1661C58.1867 21.2891 46.7726 19.0206 35.9721 22.8586C29.5516 25.1414 22.589 28.7368 17.5811 33.4166C11.6315 38.981 10.6899 43.8177 11.0751 45.8437C12.459 53.0346 22.375 57.7143 26.3414 61.1814C26.1417 61.2955 25.9562 61.3954 25.7993 61.481C23.8161 62.4654 16.2542 66.4176 14.3709 70.598C12.2308 75.3348 14.7133 78.7305 16.3541 79.1871C21.4476 80.5996 26.6838 78.0599 29.4946 73.8653C32.3053 69.6706 31.9629 64.2204 30.6645 61.7235C30.6502 61.695 30.636 61.6665 30.6074 61.6379C31.1211 61.3383 31.649 61.0244 32.1626 60.7248C33.1756 60.1256 34.1743 59.5691 35.0304 59.1126C34.5453 60.4394 34.1886 62.0231 34.0174 64.306C33.8034 66.9883 34.902 70.4696 36.343 71.8393C36.9851 72.4385 37.7412 72.4528 38.2263 72.4528C39.9099 72.4528 40.6661 71.0545 41.5079 69.3995C42.5352 67.3735 43.4626 65.0193 43.4626 65.0193C43.4626 65.0193 42.3069 71.3827 45.4458 71.3827C46.5872 71.3827 47.7428 69.8989 48.2565 69.1427C48.2565 69.1569 48.2565 69.157 48.2565 69.157C48.2565 69.157 48.285 69.1141 48.3421 69.0143C48.4562 68.8288 48.5276 68.7147 48.5276 68.7147C48.5276 68.7147 48.5276 68.7004 48.5276 68.6861C48.9841 67.8871 50.0114 66.0751 51.538 63.0647C53.507 59.1839 55.4045 54.3329 55.4045 54.3329C55.4045 54.3329 55.5758 55.5171 56.1607 57.486C56.5032 58.6417 57.2165 59.9115 57.7872 61.1386C57.3307 61.7806 57.0453 62.1373 57.0453 62.1373C57.0453 62.1373 57.0453 62.1373 57.0596 62.1516C56.6886 62.6367 56.2891 63.1646 55.8468 63.6782C54.2917 65.533 52.4369 67.6588 52.1801 68.2724C51.8804 69 51.9518 69.5279 52.5225 69.9559C52.9363 70.2698 53.6782 70.3126 54.4343 70.2698C55.8326 70.1699 56.817 69.8275 57.3021 69.6135C58.0583 69.3424 58.9429 68.9287 59.7704 68.3152C61.2971 67.188 62.2245 65.5758 62.1389 63.4499C62.0961 62.28 61.7108 61.11 61.24 60.0114C61.3827 59.8117 61.5111 59.6119 61.6538 59.4122C64.065 55.8881 65.934 52.0216 65.934 52.0216C65.934 52.0216 66.1053 53.2058 66.6902 55.1747C66.9756 56.1734 67.5606 57.2578 68.0742 58.3136C65.8056 60.1541 64.4074 62.2942 63.908 63.6925C63.0092 66.2892 63.7083 67.4591 65.0352 67.7302C65.6344 67.8586 66.4905 67.5732 67.1183 67.3022C67.9172 67.0453 68.8589 66.603 69.7578 65.9467C71.2844 64.8196 72.754 63.2502 72.6684 61.1243C72.6256 60.1541 72.3687 59.1982 72.012 58.2708C73.9382 57.4718 76.4207 57.0295 79.5882 57.4004C86.3795 58.1994 87.7207 62.4369 87.4639 64.2204C87.2071 66.0038 85.7803 66.974 85.3095 67.2736C84.8386 67.5732 84.6817 67.6731 84.7245 67.8871C84.7816 68.201 85.0098 68.1868 85.4093 68.1297C85.9658 68.0298 88.9762 66.6887 89.1047 63.4071C89.3187 59.2124 85.3237 54.6325 78.2613 54.6753ZM25.8706 72.3386C23.6163 74.7927 20.4774 75.7201 19.122 74.9353C17.6667 74.0935 18.2374 70.4696 21.0053 67.8729C22.6889 66.2892 24.8576 64.8196 26.2986 63.9207C26.6268 63.721 27.1119 63.4356 27.6968 63.0789C27.7967 63.0219 27.8538 62.9933 27.8538 62.9933C27.9679 62.922 28.0821 62.8507 28.1962 62.7793C29.2092 66.4889 28.239 69.7562 25.8706 72.3386ZM42.2783 61.1814C41.4936 63.0932 39.8529 67.987 38.8541 67.7159C37.9981 67.4876 37.4702 63.7781 38.6829 60.1113C39.2964 58.2708 40.5948 56.0736 41.3509 55.2175C42.578 53.8478 43.9334 53.3912 44.2615 53.9477C44.6753 54.6753 42.7634 59.9829 42.2783 61.1814ZM55.8183 67.6589C55.4902 67.8301 55.1763 67.9442 55.0336 67.8586C54.9337 67.8015 55.1763 67.5732 55.1763 67.5732C55.1763 67.5732 56.8741 65.747 57.5447 64.9195C57.9299 64.4344 58.3865 63.8637 58.8716 63.2216C58.8716 63.2787 58.8716 63.35 58.8716 63.4071C58.8716 65.59 56.76 67.0596 55.8183 67.6589ZM66.2622 65.2762C66.0196 65.1049 66.0625 64.5342 66.8757 62.7508C67.1896 62.0517 67.9315 60.8817 69.2013 59.7546C69.344 60.2112 69.4439 60.6535 69.4296 61.0672C69.4153 63.8209 67.4464 64.8481 66.2622 65.2762Z" fill="#CD6799"/>
</svg>
