<svg width="100" height="100" viewBox="0 0 100 100" fill="none" xmlns="http://www.w3.org/2000/svg">
<g clip-path="url(#clip0_356_7809)">
<mask id="mask0_356_7809" style="mask-type:luminance" maskUnits="userSpaceOnUse" x="17" y="17" width="66" height="66">
<path d="M17 17H83V83H17V17Z" fill="white"/>
</mask>
<g mask="url(#mask0_356_7809)">
<path d="M17 17H83V83H17V17Z" stroke="white" stroke-width="1.66038"/>
</g>
<path fill-rule="evenodd" clip-rule="evenodd" d="M26.1911 64.6151C25.272 64.6151 24.6668 65.1082 24.6668 65.7657C24.6668 66.3485 25.0255 66.737 25.8399 66.9612C26.5796 67.1704 26.7365 67.275 26.7365 67.6038C26.7365 67.9026 26.46 68.082 26.0342 68.082C25.6307 68.082 25.2646 67.9251 24.9582 67.6934L24.48 68.2314C24.8462 68.5601 25.3766 68.7918 26.0566 68.7918C26.9606 68.7918 27.7228 68.3584 27.7228 67.5365C27.7228 66.8342 27.267 66.5054 26.46 66.2887C25.7876 66.102 25.6307 65.9824 25.6307 65.7209C25.6307 65.4818 25.8474 65.3249 26.2284 65.3249C26.5796 65.3249 26.8934 65.437 27.2222 65.6462L27.5957 65.0858C27.2222 64.7944 26.7589 64.6151 26.1911 64.6151ZM30.4275 67.8802L30.7637 68.4929C30.4798 68.6946 30.1212 68.7918 29.77 68.7918C28.9929 68.7843 28.582 68.3435 28.582 67.4992V65.4146H27.9619V64.7272H28.582V63.853L29.5384 63.7409V64.7272H30.4574L30.3603 65.4146H29.5384V67.4767C29.5384 67.8653 29.6654 68.0222 29.9568 68.0222C30.1062 68.0222 30.2557 67.9774 30.4275 67.8802ZM34.4996 64.7272L33.2145 68.6946C32.9156 69.6211 32.3328 70.2189 31.1597 70.3085L31.0626 69.6137C31.8471 69.4941 32.1012 69.2401 32.3253 68.6797H31.9966L30.7413 64.7272H31.7575L32.6167 68.0446L33.5133 64.7272H34.4996ZM36.0163 68.7918C36.2629 68.7918 36.4871 68.732 36.6514 68.6573L36.4497 67.9848C36.3825 68.0072 36.3152 68.0222 36.2256 68.0222C36.0686 68.0222 36.0014 67.9325 36.0014 67.7457V63.0386L35.045 63.1432V67.7756C35.045 68.4257 35.4111 68.7918 36.0163 68.7918ZM40.5292 66.61C40.5292 66.7371 40.5143 66.894 40.5068 66.9986H38.0262C38.0935 67.8055 38.4745 68.067 38.9976 68.067C39.3487 68.067 39.6401 67.9549 39.9838 67.7158L40.3798 68.2613C39.9913 68.5751 39.5131 68.7918 38.9154 68.7918C37.69 68.7918 37.0325 67.9773 37.0325 66.7296C37.0325 65.5266 37.6676 64.6151 38.7883 64.6151C39.8942 64.6151 40.5292 65.3623 40.5292 66.61ZM39.5803 66.3784V66.3336C39.5803 65.6835 39.3487 65.295 38.8108 65.295C38.3625 65.295 38.0785 65.5939 38.0262 66.3784H39.5803ZM43.757 63.0386L44.7134 63.1432V68.6797H43.8691L43.8019 68.1791C43.5628 68.5377 43.1817 68.7918 42.6736 68.7918C41.6874 68.7918 41.1718 67.9624 41.1718 66.7072C41.1718 65.4893 41.7845 64.6151 42.7633 64.6151C43.1817 64.6151 43.5105 64.7944 43.757 65.041V63.0386ZM42.9426 68.067C43.2938 68.067 43.5329 67.8952 43.757 67.5589V65.7508C43.5478 65.4967 43.3237 65.3324 43.0024 65.3324C42.5092 65.3324 42.1805 65.7508 42.1805 66.6997C42.1805 67.7158 42.4719 68.067 42.9426 68.067ZM26.2234 72.0868C25.0877 72.0868 24.3779 72.946 24.3779 74.2087C24.3779 75.4715 25.0877 76.2635 26.2309 76.2635C26.739 76.2635 27.1499 76.0991 27.5086 75.8077L27.0827 75.2025C26.7913 75.3893 26.5821 75.4864 26.2832 75.4864C25.7453 75.4864 25.3941 75.1502 25.3941 74.1938C25.3941 73.2449 25.7303 72.8414 26.2832 72.8414C26.5821 72.8414 26.8212 72.9311 27.0827 73.1254L27.5086 72.55C27.135 72.2287 26.739 72.0868 26.2234 72.0868ZM29.8173 72.0868C30.9829 72.0868 31.6703 72.8788 31.6703 74.1714C31.6703 75.4192 30.9754 76.2635 29.8099 76.2635C28.6443 76.2635 27.9494 75.4715 27.9494 74.1714C27.9494 72.9311 28.6443 72.0868 29.8173 72.0868ZM29.8173 72.8115C29.2569 72.8115 28.9581 73.2374 28.9581 74.1714C28.9581 75.1203 29.2495 75.5387 29.8099 75.5387C30.3702 75.5387 30.6616 75.1128 30.6616 74.1714C30.6616 73.23 30.3702 72.8115 29.8173 72.8115ZM36.7585 72.0868C36.2355 72.0868 35.8694 72.3408 35.5705 72.7518C35.4211 72.3333 35.0774 72.0868 34.6142 72.0868C34.1136 72.0868 33.7549 72.3184 33.471 72.7144L33.3963 72.1989H32.5669V76.1514H33.5233V73.4018C33.74 73.0357 33.9417 72.8041 34.2779 72.8041C34.5096 72.8041 34.7113 72.946 34.7113 73.4392V76.1514H35.6677V73.4018C35.8843 73.0357 36.0861 72.8041 36.4148 72.8041C36.6539 72.8041 36.8482 72.946 36.8482 73.4392V76.1514H37.8046V73.2897C37.8046 72.5426 37.3862 72.0868 36.7585 72.0868ZM40.9651 72.0868C41.9962 72.0868 42.4296 72.9012 42.4296 74.1639C42.4296 75.3743 41.8692 76.2635 40.868 76.2635C40.4645 76.2635 40.1208 76.1215 39.8742 75.8301V77.6756L38.9179 77.7802V72.1989H39.7547L39.807 72.6845C40.1208 72.2736 40.5392 72.0868 40.9651 72.0868ZM40.599 75.5312C41.122 75.5312 41.4283 75.1278 41.4283 74.1714C41.4283 73.1702 41.1594 72.8041 40.6812 72.8041C40.3449 72.8041 40.061 73.0357 39.8742 73.342V75.1203C40.061 75.3967 40.3001 75.5312 40.599 75.5312ZM44.9849 72.0868C46.1505 72.0868 46.8379 72.8788 46.8379 74.1714C46.8379 75.4192 46.143 76.2635 44.9774 76.2635C43.8118 76.2635 43.1169 75.4715 43.1169 74.1714C43.1169 72.9311 43.8118 72.0868 44.9849 72.0868ZM44.9849 72.8115C44.4245 72.8115 44.1256 73.2374 44.1256 74.1714C44.1256 75.1203 44.417 75.5387 44.9774 75.5387C45.5378 75.5387 45.8292 75.1128 45.8292 74.1714C45.8292 73.23 45.5378 72.8115 44.9849 72.8115ZM49.8415 72.0868C49.3409 72.0868 48.9449 72.3184 48.6385 72.7144L48.5638 72.1989H47.7345V76.1514H48.6908V73.4018C48.9225 73.0357 49.1765 72.8041 49.5202 72.8041C49.8191 72.8041 50.0059 72.946 50.0059 73.4392V76.1514H50.9622V73.2897C50.9622 72.5351 50.5513 72.0868 49.8415 72.0868ZM55.3182 74.0817C55.3182 74.2087 55.3033 74.3656 55.2958 74.4703H52.8152C52.8825 75.2772 53.2635 75.5387 53.7865 75.5387C54.1377 75.5387 54.4291 75.4266 54.7728 75.1875L55.1688 75.733C54.7803 76.0468 54.3021 76.2635 53.7043 76.2635C52.479 76.2635 51.8215 75.449 51.8215 74.2013C51.8215 72.9983 52.4566 72.0868 53.5773 72.0868C54.6831 72.0868 55.3182 72.834 55.3182 74.0817ZM54.3693 73.8501V73.8053C54.3693 73.1552 54.1377 72.7667 53.5997 72.7667C53.1514 72.7667 52.8675 73.0656 52.8152 73.8501H54.3693ZM58.2845 72.0868C57.7839 72.0868 57.3879 72.3184 57.0816 72.7144L57.0068 72.1989H56.1775V76.1514H57.1339V73.4018C57.3655 73.0357 57.6195 72.8041 57.9632 72.8041C58.2621 72.8041 58.4489 72.946 58.4489 73.4392V76.1514H59.4052V73.2897C59.4052 72.5351 58.9943 72.0868 58.2845 72.0868ZM62.4462 75.3519C62.2744 75.449 62.1249 75.4939 61.9755 75.4939C61.6841 75.4939 61.5571 75.337 61.5571 74.9484V72.8863H62.379L62.4761 72.1989H61.5571V71.2126L60.6007 71.3247V72.1989H59.9806V72.8863H60.6007V74.9709C60.6007 75.8152 61.0117 76.256 61.7887 76.2635C62.1399 76.2635 62.4985 76.1663 62.7825 75.9646L62.4462 75.3519ZM64.5682 72.0868C63.6492 72.0868 63.044 72.5799 63.044 73.2374C63.044 73.8202 63.4026 74.2087 64.217 74.4329C64.9567 74.6421 65.1136 74.7467 65.1136 75.0755C65.1136 75.3743 64.8372 75.5536 64.4113 75.5536C64.0078 75.5536 63.6417 75.3967 63.3354 75.1651L62.8572 75.7031C63.2233 76.0318 63.7538 76.2635 64.4337 76.2635C65.3378 76.2635 66.0999 75.8301 66.0999 75.0082C66.0999 74.3059 65.6441 73.9771 64.8372 73.7604C64.1647 73.5737 64.0078 73.4541 64.0078 73.1926C64.0078 72.9535 64.2245 72.7966 64.6056 72.7966C64.9567 72.7966 65.2705 72.9087 65.5993 73.1179L65.9729 72.5575C65.5993 72.2661 65.136 72.0868 64.5682 72.0868ZM33.5623 35.0986L26.0491 39.7684L33.5623 44.5212L32.7944 45.4759L24.9699 40.5778V38.9382L32.8774 34.0401M72.1661 38.7514V40.3703L64.3416 45.2684L63.5736 44.2514L71.0661 39.5608L63.5736 34.8495L64.2378 33.8325" fill="#4A4A4A"/>
<path d="M39.415 46.5852H60.1698V25.8304H39.415V46.5852Z" fill="black"/>
</g>
<defs>
<clipPath id="clip0_356_7809">
<rect width="66" height="66" fill="white" transform="translate(17 17)"/>
</clipPath>
</defs>
</svg>
