<svg width="100" height="100" viewBox="0 0 100 100" fill="none" xmlns="http://www.w3.org/2000/svg">
<g clip-path="url(#clip0_356_7773)">
<path d="M76.5547 17H23.4453C19.8857 17 17 19.8857 17 23.4453V76.5547C17 80.1143 19.8857 83 23.4453 83H76.5547C80.1143 83 83 80.1143 83 76.5547V23.4453C83 19.8857 80.1143 17 76.5547 17Z" fill="#3178C6"/>
<path fill-rule="evenodd" clip-rule="evenodd" d="M57.8633 69.4648V75.9101C58.9074 76.4515 60.1836 76.8511 61.6016 77.1218C63.0195 77.3925 64.5664 77.5214 66.1133 77.5214C67.6602 77.5214 69.0781 77.3796 70.4961 77.0831C71.9141 76.7866 73.0742 76.2968 74.1055 75.6652C75.1496 74.982 76.0391 74.1183 76.5547 72.9581C77.0703 71.798 77.4699 70.5089 77.4699 68.8331C77.4699 67.6601 77.2895 66.6417 76.9414 65.7394C76.5934 64.837 76.0906 64.0636 75.3945 63.4191C74.7371 62.7359 73.9766 62.13 73.0742 61.6144C72.1719 61.0988 71.1406 60.5573 69.9805 60.0675C69.1297 59.7195 68.4336 59.3843 67.6602 59.0491C66.9898 58.714 66.4098 58.3788 65.9844 58.0437C65.5074 57.6956 65.1465 57.3347 64.8887 56.9609C64.6309 56.5741 64.502 56.1487 64.502 55.6718C64.502 55.2335 64.6167 54.8339 64.85 54.473C65.0833 54.112 65.4043 53.8155 65.8168 53.5577C66.2293 53.2999 66.7449 53.1066 67.3637 52.9648C67.9695 52.823 68.6398 52.7585 69.4262 52.7585C69.9676 52.7585 70.5348 52.7985 71.102 52.8797C71.6949 52.9609 72.3008 53.0859 72.9066 53.2535C73.5125 53.4211 74.1055 53.6273 74.7113 53.8852C75.2785 54.143 75.807 54.4395 76.2582 54.7746V48.716C75.2785 48.3422 74.1957 48.0586 73.0355 47.8781C71.8754 47.6977 70.5863 47.6074 69.0395 47.6074C67.4926 47.6074 66.0746 47.775 64.6566 48.0973C63.2387 48.4195 62.0785 48.9352 61.0473 49.6441C60.0031 50.3402 59.2426 51.191 58.598 52.3512C57.9922 53.434 57.6957 54.6715 57.6957 56.2184C57.6957 58.152 58.25 59.8277 59.3715 61.1168C60.4801 62.5348 62.2074 63.566 64.3988 64.5973C65.2883 64.9582 66.0746 65.3191 66.848 65.6672C67.6215 66.0152 68.266 66.3762 68.7816 66.75C69.3359 67.1238 69.7742 67.5363 70.0707 67.9746C70.393 68.4129 70.5605 68.9285 70.5605 69.5215C70.5605 69.934 70.46 70.3207 70.2641 70.6816C70.0681 71.0426 69.7613 71.352 69.3488 71.6098C68.9363 71.8676 68.4336 72.0738 67.802 72.2285C67.1961 72.3703 66.5129 72.4477 65.6105 72.4477C64.1926 72.4477 62.7746 72.2027 61.4855 71.7129C60.0676 71.223 58.7785 70.4883 57.6184 69.5215L57.8633 69.4648ZM47.0352 53.6093H55.2852V48.3241H32.2109V53.6093H40.4609V77.1991H47.0352V53.6093Z" fill="white"/>
</g>
<defs>
<clipPath id="clip0_356_7773">
<rect width="66" height="66" fill="white" transform="translate(17 17)"/>
</clipPath>
</defs>
</svg>
